<?xml version="1.0" encoding="UTF-8"?>
<!DOCTYPE svg PUBLIC "-//W3C//DTD SVG 1.1//EN" "http://www.w3.org/Graphics/SVG/1.1/DTD/svg11.dtd">
<svg xmlns="http://www.w3.org/2000/svg" version="1.1" width="194px" height="193px" style="shape-rendering:geometricPrecision; text-rendering:geometricPrecision; image-rendering:optimizeQuality; fill-rule:evenodd; clip-rule:evenodd" xmlns:xlink="http://www.w3.org/1999/xlink">
<g><path style="opacity:0.02" fill="#fefdfd" d="M -0.5,-0.5 C 64.1667,-0.5 128.833,-0.5 193.5,-0.5C 193.5,37.5 193.5,75.5 193.5,113.5C 189.184,110.86 184.851,108.194 180.5,105.5C 179.92,108.975 179.087,112.309 178,115.5C 177.83,106.657 177.33,97.9903 176.5,89.5C 174.833,88.1667 173.167,86.8333 171.5,85.5C 170.5,83.8333 169.167,82.5 167.5,81.5C 166.833,81.1667 166.167,80.8333 165.5,80.5C 165.167,78.1667 163.833,76.8333 161.5,76.5C 161.667,62.1628 161.5,47.8295 161,33.5C 149.984,22.9828 138.817,12.6495 127.5,2.5C 126.687,6.16157 126.021,9.82824 125.5,13.5C 123.659,14.4023 122.326,15.7356 121.5,17.5C 119.368,17.5544 118.035,18.5544 117.5,20.5C 116.833,20.5 116.167,20.5 115.5,20.5C 110.407,16.912 105.74,12.7454 101.5,8C 99.6476,7.2274 98.3143,7.7274 97.5,9.5C 96.8333,9.5 96.5,9.83333 96.5,10.5C 89.2049,15.7944 82.2049,21.4611 75.5,27.5C 75.1667,27.5 74.8333,27.5 74.5,27.5C 70.7882,27.877 67.7882,29.5437 65.5,32.5C 62.5726,33.7573 60.2393,35.7573 58.5,38.5C 55.2085,40.4581 52.2085,42.7915 49.5,45.5C 46.865,46.4735 44.865,48.1402 43.5,50.5C 40.6298,51.4333 38.2964,53.1 36.5,55.5C 34.5956,55.7376 33.2623,56.7376 32.5,58.5C 30.629,58.8588 29.129,59.8588 28,61.5C 27.5002,70.8274 27.3335,80.1607 27.5,89.5C 24.0581,88.8283 21.3914,89.8283 19.5,92.5C 18.5,92.8333 17.8333,93.5 17.5,94.5C 14.3595,96.7775 11.0262,98.9441 7.5,101C 6.74756,101.671 6.41423,102.504 6.5,103.5C 4.59565,103.738 3.26231,104.738 2.5,106.5C 1.39105,106.557 0.391047,106.89 -0.5,107.5C -0.5,71.5 -0.5,35.5 -0.5,-0.5 Z"/></g>
<g><path style="opacity:1" fill="#3398c7" d="M 115.5,20.5 C 114.5,21.8333 113.5,23.1667 112.5,24.5C 108.518,27.1518 104.851,30.1518 101.5,33.5C 101.167,33.5 100.833,33.5 100.5,33.5C 99.8333,33.5 99.5,33.8333 99.5,34.5C 98.1667,35.5 96.8333,36.5 95.5,37.5C 94.0427,35.2476 92.5427,35.5809 91,38.5C 90.5,37.3333 89.6667,36.5 88.5,36C 90.9011,35.195 90.7344,34.3617 88,33.5C 87.1107,34.8882 86.6107,34.7215 86.5,33C 89.157,24.5177 93.4904,17.0177 99.5,10.5C 99.0431,9.70245 98.3764,9.36912 97.5,9.5C 98.3143,7.7274 99.6476,7.2274 101.5,8C 105.74,12.7454 110.407,16.912 115.5,20.5 Z"/></g>
<g><path style="opacity:1" fill="#b7676b" d="M 125.5,13.5 C 125.5,14.5 125.5,15.5 125.5,16.5C 124.041,16.4326 122.708,16.7659 121.5,17.5C 122.326,15.7356 123.659,14.4023 125.5,13.5 Z"/></g>
<g><path style="opacity:1" fill="#a52d32" d="M 125.5,16.5 C 125.5,17.8333 125.5,19.1667 125.5,20.5C 126.413,26.4406 126.746,32.4406 126.5,38.5C 123.622,32.2766 122.122,25.61 122,18.5C 121.617,19.056 121.117,19.3893 120.5,19.5C 119.391,19.5569 118.391,19.8902 117.5,20.5C 118.035,18.5544 119.368,17.5544 121.5,17.5C 122.708,16.7659 124.041,16.4326 125.5,16.5 Z"/></g>
<g><path style="opacity:0.639" fill="#75aecd" d="M 96.5,10.5 C 90.3742,17.2971 83.3742,22.9638 75.5,27.5C 82.2049,21.4611 89.2049,15.7944 96.5,10.5 Z"/></g>
<g><path style="opacity:1" fill="#5c3246" d="M 125.5,20.5 C 126.5,20.8333 127.167,21.5 127.5,22.5C 127.5,27.8333 127.5,33.1667 127.5,38.5C 127.167,38.5 126.833,38.5 126.5,38.5C 126.746,32.4406 126.413,26.4406 125.5,20.5 Z"/></g>
<g><path style="opacity:1" fill="#3aa6d2" d="M 161.5,76.5 C 160.883,76.3893 160.383,76.056 160,75.5C 159.501,69.5092 159.334,63.5092 159.5,57.5C 159.5,55.8333 159.5,54.1667 159.5,52.5C 159.737,51.209 159.404,50.209 158.5,49.5C 158.167,48.5 157.5,47.8333 156.5,47.5C 147.02,38.9302 137.353,30.5969 127.5,22.5C 127.167,21.5 126.5,20.8333 125.5,20.5C 125.5,19.1667 125.5,17.8333 125.5,16.5C 125.5,15.5 125.5,14.5 125.5,13.5C 126.021,9.82824 126.687,6.16157 127.5,2.5C 138.817,12.6495 149.984,22.9828 161,33.5C 161.5,47.8295 161.667,62.1628 161.5,76.5 Z"/></g>
<g><path style="opacity:1" fill="#bc5a5c" d="M 115.5,20.5 C 116.167,20.5 116.833,20.5 117.5,20.5C 116.415,22.5869 114.749,23.9202 112.5,24.5C 113.5,23.1667 114.5,21.8333 115.5,20.5 Z"/></g>
<g><path style="opacity:1" fill="#223754" d="M 127.5,22.5 C 137.353,30.5969 147.02,38.9302 156.5,47.5C 156.414,48.4959 156.748,49.3292 157.5,50C 151.624,49.9319 146.624,48.2652 142.5,45C 139.5,43.8333 136.5,42.6667 133.5,41.5C 132.702,41.9569 132.369,42.6236 132.5,43.5C 130.5,42.1667 128.833,40.5 127.5,38.5C 127.5,33.1667 127.5,27.8333 127.5,22.5 Z"/></g>
<g><path style="opacity:1" fill="#be2f32" d="M 126.5,38.5 C 126.833,38.5 127.167,38.5 127.5,38.5C 128.833,40.5 130.5,42.1667 132.5,43.5C 133.167,44.8333 134.167,45.8333 135.5,46.5C 136.585,48.5869 138.251,49.9202 140.5,50.5C 142.17,53.0016 144.336,55.0016 147,56.5C 147.585,57.9976 147.085,58.9976 145.5,59.5C 145.5,58.5 145.5,57.5 145.5,56.5C 144.127,56.6567 142.793,56.49 141.5,56C 135.034,51.2019 128.868,46.0352 123,40.5C 122.208,38.4127 121.041,36.5793 119.5,35C 119.644,30.0395 119.977,24.8728 120.5,19.5C 121.117,19.3893 121.617,19.056 122,18.5C 122.122,25.61 123.622,32.2766 126.5,38.5 Z"/></g>
<g><path style="opacity:1" fill="#268fc3" d="M 97.5,9.5 C 98.3764,9.36912 99.0431,9.70245 99.5,10.5C 93.4904,17.0177 89.157,24.5177 86.5,33C 86.6107,34.7215 87.1107,34.8882 88,33.5C 90.7344,34.3617 90.9011,35.195 88.5,36C 89.6667,36.5 90.5,37.3333 91,38.5C 92.5427,35.5809 94.0427,35.2476 95.5,37.5C 89.7799,43.912 84.2799,50.5786 79,57.5C 78.6667,57.1667 78.3333,56.8333 78,56.5C 76.0536,59.1388 75.0536,62.1388 75,65.5C 74.2054,52.7879 74.3721,40.1212 75.5,27.5C 83.3742,22.9638 90.3742,17.2971 96.5,10.5C 96.5,9.83333 96.8333,9.5 97.5,9.5 Z"/></g>
<g><path style="opacity:0.769" fill="#dd7a75" d="M 65.5,32.5 C 64.8333,33.5 64.1667,34.5 63.5,35.5C 62.078,36.925 60.4113,37.925 58.5,38.5C 60.2393,35.7573 62.5726,33.7573 65.5,32.5 Z"/></g>
<g><path style="opacity:1" fill="#df3b36" d="M 120.5,19.5 C 119.977,24.8728 119.644,30.0395 119.5,35C 121.041,36.5793 122.208,38.4127 123,40.5C 128.868,46.0352 135.034,51.2019 141.5,56C 142.793,56.49 144.127,56.6567 145.5,56.5C 145.5,57.5 145.5,58.5 145.5,59.5C 144.833,59.5 144.5,59.8333 144.5,60.5C 142.5,61.1667 140.5,61.8333 138.5,62.5C 134.869,62.8396 131.536,62.0063 128.5,60C 119.63,51.6266 110.63,43.4599 101.5,35.5C 101.5,34.8333 101.5,34.1667 101.5,33.5C 104.851,30.1518 108.518,27.1518 112.5,24.5C 114.749,23.9202 116.415,22.5869 117.5,20.5C 118.391,19.8902 119.391,19.5569 120.5,19.5 Z"/></g>
<g><path style="opacity:1" fill="#e44039" d="M 63.5,35.5 C 64.2891,35.7828 64.9558,36.2828 65.5,37C 64.4178,38.3297 63.7512,39.8297 63.5,41.5C 62.5041,41.4142 61.6708,41.7476 61,42.5C 54.247,51.2984 48.5803,59.6317 44,67.5C 43.6667,67.1667 43.3333,66.8333 43,66.5C 41.9563,67.6226 41.2896,68.9559 41,70.5C 39.2215,69.5209 37.5548,69.8542 36,71.5C 35.6667,70.1667 35.3333,68.8333 35,67.5C 34.6667,68.1667 34.3333,68.8333 34,69.5C 30.5241,66.4005 30.6908,63.5671 34.5,61C 33.4019,60.2303 33.4019,59.397 34.5,58.5C 35.1667,57.5 35.8333,56.5 36.5,55.5C 40.0709,55.4393 42.4042,53.7726 43.5,50.5C 46.1092,49.5569 48.1092,47.8903 49.5,45.5C 53.3633,44.3064 56.3633,41.973 58.5,38.5C 60.4113,37.925 62.078,36.925 63.5,35.5 Z"/></g>
<g><path style="opacity:1" fill="#254264" d="M 73.5,36.5 C 73.5,46.1667 73.5,55.8333 73.5,65.5C 72.6745,61.0181 72.1745,56.3514 72,51.5C 71.3694,60.1776 71.036,68.8443 71,77.5C 71.9709,81.8116 74.4709,84.9783 78.5,87C 78.1667,87.3333 77.8333,87.6667 77.5,88C 78.8333,88.3333 80.1667,88.6667 81.5,89C 86.6017,96.0314 91.6017,96.1981 96.5,89.5C 94.8909,95.1165 91.2242,98.1165 85.5,98.5C 84.8333,98.5 84.1667,98.5 83.5,98.5C 82.6364,97.3117 81.6364,96.1451 80.5,95C 77.1228,94.5483 73.7895,93.8816 70.5,93C 69.4686,89.9605 67.6353,87.4605 65,85.5C 63.8268,78.3473 65.1602,71.6806 69,65.5C 69.6667,57.5 69.6667,49.5 69,41.5C 68.3292,42.2524 67.4959,42.5858 66.5,42.5C 68.6068,40.2733 70.9401,38.2733 73.5,36.5 Z"/></g>
<g><path style="opacity:0.894" fill="#de6963" d="M 58.5,38.5 C 56.3633,41.973 53.3633,44.3064 49.5,45.5C 52.2085,42.7915 55.2085,40.4581 58.5,38.5 Z"/></g>
<g><path style="opacity:1" fill="#2b4566" d="M 156.5,47.5 C 157.5,47.8333 158.167,48.5 158.5,49.5C 158.141,51.371 157.141,52.871 155.5,54C 152.064,56.7121 148.397,58.8788 144.5,60.5C 144.5,59.8333 144.833,59.5 145.5,59.5C 147.085,58.9976 147.585,57.9976 147,56.5C 144.336,55.0016 142.17,53.0016 140.5,50.5C 139.415,48.4131 137.749,47.0798 135.5,46.5C 134.167,45.8333 133.167,44.8333 132.5,43.5C 132.369,42.6236 132.702,41.9569 133.5,41.5C 136.5,42.6667 139.5,43.8333 142.5,45C 146.624,48.2652 151.624,49.9319 157.5,50C 156.748,49.3292 156.414,48.4959 156.5,47.5 Z"/></g>
<g><path style="opacity:1" fill="#257eb1" d="M 74.5,27.5 C 74.8333,27.5 75.1667,27.5 75.5,27.5C 74.3721,40.1212 74.2054,52.7879 75,65.5C 75.0536,62.1388 76.0536,59.1388 78,56.5C 78.3333,56.8333 78.6667,57.1667 79,57.5C 84.2799,50.5786 89.7799,43.912 95.5,37.5C 96.8333,36.5 98.1667,35.5 99.5,34.5C 99.5,35.1667 99.5,35.8333 99.5,36.5C 91.5877,49.787 89.5877,64.1203 93.5,79.5C 93.3333,80.1667 93.1667,80.8333 93,81.5C 92.1841,80.1772 91.0174,79.5106 89.5,79.5C 83.8451,75.177 78.5118,70.5103 73.5,65.5C 73.5,55.8333 73.5,46.1667 73.5,36.5C 73.2641,33.3915 73.5975,30.3915 74.5,27.5 Z"/></g>
<g><path style="opacity:0.855" fill="#de756f" d="M 49.5,45.5 C 48.1092,47.8903 46.1092,49.5569 43.5,50.5C 44.865,48.1402 46.865,46.4735 49.5,45.5 Z"/></g>
<g><path style="opacity:1" fill="#653b50" d="M 135.5,46.5 C 137.749,47.0798 139.415,48.4131 140.5,50.5C 138.251,49.9202 136.585,48.5869 135.5,46.5 Z"/></g>
<g><path style="opacity:1" fill="#da3c38" d="M 63.5,41.5 C 59.1643,48.5021 55.6643,55.8355 53,63.5C 52.5045,65.4727 52.3379,67.4727 52.5,69.5C 48.3122,73.4143 43.9788,77.081 39.5,80.5C 37.5956,80.7376 36.2623,81.7376 35.5,83.5C 33.4451,85.5547 31.1117,87.2213 28.5,88.5C 28.3336,79.8269 28.5002,71.1603 29,62.5C 30.3756,61.2949 31.5423,59.9616 32.5,58.5C 33.1667,58.5 33.8333,58.5 34.5,58.5C 33.4019,59.397 33.4019,60.2303 34.5,61C 30.6908,63.5671 30.5241,66.4005 34,69.5C 34.3333,68.8333 34.6667,68.1667 35,67.5C 35.3333,68.8333 35.6667,70.1667 36,71.5C 37.5548,69.8542 39.2215,69.5209 41,70.5C 41.2896,68.9559 41.9563,67.6226 43,66.5C 43.3333,66.8333 43.6667,67.1667 44,67.5C 48.5803,59.6317 54.247,51.2984 61,42.5C 61.6708,41.7476 62.5041,41.4142 63.5,41.5 Z"/></g>
<g><path style="opacity:1" fill="#cd3938" d="M 74.5,27.5 C 73.5975,30.3915 73.2641,33.3915 73.5,36.5C 70.9401,38.2733 68.6068,40.2733 66.5,42.5C 66.1667,42.5 65.8333,42.5 65.5,42.5C 64.207,43.842 63.3736,45.5087 63,47.5C 61.9701,52.8137 61.1368,58.1471 60.5,63.5C 59.8333,63.5 59.5,63.8333 59.5,64.5C 56.9108,65.4194 54.9108,67.086 53.5,69.5C 53.1667,69.5 52.8333,69.5 52.5,69.5C 52.3379,67.4727 52.5045,65.4727 53,63.5C 55.6643,55.8355 59.1643,48.5021 63.5,41.5C 63.7512,39.8297 64.4178,38.3297 65.5,37C 64.9558,36.2828 64.2891,35.7828 63.5,35.5C 64.1667,34.5 64.8333,33.5 65.5,32.5C 67.7882,29.5437 70.7882,27.877 74.5,27.5 Z"/></g>
<g><path style="opacity:0.996" fill="#df665e" d="M 43.5,50.5 C 42.4042,53.7726 40.0709,55.4393 36.5,55.5C 38.2964,53.1 40.6298,51.4333 43.5,50.5 Z"/></g>
<g><path style="opacity:1" fill="#9c222a" d="M 101.5,35.5 C 110.63,43.4599 119.63,51.6266 128.5,60C 131.536,62.0063 134.869,62.8396 138.5,62.5C 135.55,64.1153 132.884,66.1153 130.5,68.5C 129.833,68.5 129.167,68.5 128.5,68.5C 128.063,66.9256 127.063,65.7589 125.5,65C 121.281,63.8913 117.281,62.2246 113.5,60C 109.262,56.5834 105.262,53.0834 101.5,49.5C 101.5,44.8333 101.5,40.1667 101.5,35.5 Z"/></g>
<g><path style="opacity:1" fill="#8f4856" d="M 100.5,33.5 C 100.833,33.5 101.167,33.5 101.5,33.5C 101.5,34.1667 101.5,34.8333 101.5,35.5C 101.5,40.1667 101.5,44.8333 101.5,49.5C 101.5,51.1667 101.5,52.8333 101.5,54.5C 101.5,56.5 101.5,58.5 101.5,60.5C 101.173,69.6822 101.507,78.6822 102.5,87.5C 102.5,87.8333 102.5,88.1667 102.5,88.5C 100.513,70.5305 99.8465,52.1971 100.5,33.5 Z"/></g>
<g><path style="opacity:0.635" fill="#d98886" d="M 36.5,55.5 C 35.8333,56.5 35.1667,57.5 34.5,58.5C 33.8333,58.5 33.1667,58.5 32.5,58.5C 33.2623,56.7376 34.5956,55.7376 36.5,55.5 Z"/></g>
<g><path style="opacity:1" fill="#a42c32" d="M 65.5,42.5 C 65.5,48.1667 65.5,53.8333 65.5,59.5C 63.8333,60.8333 62.1667,62.1667 60.5,63.5C 61.1368,58.1471 61.9701,52.8137 63,47.5C 63.3736,45.5087 64.207,43.842 65.5,42.5 Z"/></g>
<g><path style="opacity:1" fill="#c73132" d="M 123.5,72.5 C 121.858,73.803 120.191,75.1363 118.5,76.5C 118.719,75.325 118.386,74.325 117.5,73.5C 116.365,72.8973 115.365,72.5639 114.5,72.5C 114.977,71.5224 115.643,70.6891 116.5,70C 114.655,68.872 112.655,68.372 110.5,68.5C 110.649,67.448 110.483,66.448 110,65.5C 107,63.8333 104.667,61.5 103,58.5C 102.722,59.4158 102.222,60.0825 101.5,60.5C 101.5,58.5 101.5,56.5 101.5,54.5C 102.117,54.3893 102.617,54.056 103,53.5C 108.5,59.4912 115,64.1579 122.5,67.5C 123.452,69.0453 123.785,70.712 123.5,72.5 Z"/></g>
<g><path style="opacity:1" fill="#b32b2f" d="M 101.5,49.5 C 105.262,53.0834 109.262,56.5834 113.5,60C 117.281,62.2246 121.281,63.8913 125.5,65C 127.063,65.7589 128.063,66.9256 128.5,68.5C 127.055,70.0627 125.389,71.396 123.5,72.5C 123.785,70.712 123.452,69.0453 122.5,67.5C 115,64.1579 108.5,59.4912 103,53.5C 102.617,54.056 102.117,54.3893 101.5,54.5C 101.5,52.8333 101.5,51.1667 101.5,49.5 Z"/></g>
<g><path style="opacity:1" fill="#296998" d="M 99.5,36.5 C 99.6666,53.8365 99.4999,71.1699 99,88.5C 98.6174,87.944 98.1174,87.6107 97.5,87.5C 94.5271,85.1938 91.8605,82.5272 89.5,79.5C 91.0174,79.5106 92.1841,80.1772 93,81.5C 93.1667,80.8333 93.3333,80.1667 93.5,79.5C 89.5877,64.1203 91.5877,49.787 99.5,36.5 Z"/></g>
<g><path style="opacity:1" fill="#293d5c" d="M 65.5,59.5 C 64.4886,61.3716 63.6552,63.3716 63,65.5C 55.864,71.6349 49.0307,78.1349 42.5,85C 40.5952,86.4213 38.5952,87.588 36.5,88.5C 36.0156,85.2118 37.0156,82.5452 39.5,80.5C 43.9788,77.081 48.3122,73.4143 52.5,69.5C 52.8333,69.5 53.1667,69.5 53.5,69.5C 56.0892,68.5806 58.0892,66.914 59.5,64.5C 59.5,63.8333 59.8333,63.5 60.5,63.5C 62.1667,62.1667 63.8333,60.8333 65.5,59.5 Z"/></g>
<g><path style="opacity:1" fill="#5d374b" d="M 59.5,64.5 C 58.0892,66.914 56.0892,68.5806 53.5,69.5C 54.9108,67.086 56.9108,65.4194 59.5,64.5 Z"/></g>
<g><path style="opacity:1" fill="#213653" d="M 73.5,65.5 C 78.5118,70.5103 83.8451,75.177 89.5,79.5C 91.8605,82.5272 94.5271,85.1938 97.5,87.5C 97.6716,88.4916 97.3382,89.1583 96.5,89.5C 91.6017,96.1981 86.6017,96.0314 81.5,89C 80.1667,88.6667 78.8333,88.3333 77.5,88C 77.8333,87.6667 78.1667,87.3333 78.5,87C 74.4709,84.9783 71.9709,81.8116 71,77.5C 71.036,68.8443 71.3694,60.1776 72,51.5C 72.1745,56.3514 72.6745,61.0181 73.5,65.5 Z"/></g>
<g><path style="opacity:0.588" fill="#d07775" d="M 32.5,58.5 C 31.5423,59.9616 30.3756,61.2949 29,62.5C 28.5002,71.1603 28.3336,79.8269 28.5,88.5C 28.1627,91.3357 26.8293,92.0024 24.5,90.5C 23.5084,90.3284 22.8417,90.6618 22.5,91.5C 21.609,92.1098 20.609,92.4431 19.5,92.5C 21.3914,89.8283 24.0581,88.8283 27.5,89.5C 27.3335,80.1607 27.5002,70.8274 28,61.5C 29.129,59.8588 30.629,58.8588 32.5,58.5 Z"/></g>
<g><path style="opacity:1" fill="#2d567d" d="M 100.5,33.5 C 99.8465,52.1971 100.513,70.5305 102.5,88.5C 111.242,84.0259 119.909,79.3593 128.5,74.5C 128.604,72.2972 129.27,70.2972 130.5,68.5C 132.884,66.1153 135.55,64.1153 138.5,62.5C 140.5,61.8333 142.5,61.1667 144.5,60.5C 143.528,63.986 141.528,66.8193 138.5,69C 127.412,76.2541 116.745,84.0874 106.5,92.5C 104.577,92.3696 102.744,92.0362 101,91.5C 99.887,92.7604 99.7203,93.927 100.5,95C 99.552,95.4828 98.552,95.6495 97.5,95.5C 97.7616,99.1797 96.4283,100.513 93.5,99.5C 90.9455,98.612 88.2788,98.2786 85.5,98.5C 91.2242,98.1165 94.8909,95.1165 96.5,89.5C 97.3382,89.1583 97.6716,88.4916 97.5,87.5C 98.1174,87.6107 98.6174,87.944 99,88.5C 99.4999,71.1699 99.6666,53.8365 99.5,36.5C 99.5,35.8333 99.5,35.1667 99.5,34.5C 99.5,33.8333 99.8333,33.5 100.5,33.5 Z"/></g>
<g><path style="opacity:1" fill="#e03b35" d="M 118.5,76.5 C 113.167,80.1667 107.833,83.8333 102.5,87.5C 101.507,78.6822 101.173,69.6822 101.5,60.5C 102.222,60.0825 102.722,59.4158 103,58.5C 104.667,61.5 107,63.8333 110,65.5C 110.483,66.448 110.649,67.448 110.5,68.5C 112.655,68.372 114.655,68.872 116.5,70C 115.643,70.6891 114.977,71.5224 114.5,72.5C 115.365,72.5639 116.365,72.8973 117.5,73.5C 118.386,74.325 118.719,75.325 118.5,76.5 Z"/></g>
<g><path style="opacity:1" fill="#284c71" d="M 83.5,98.5 C 83.5,98.8333 83.5,99.1667 83.5,99.5C 80.8333,100.167 79.1667,101.833 78.5,104.5C 77.2101,105.058 76.3768,106.058 76,107.5C 75.1482,106.429 74.3149,105.429 73.5,104.5C 73.5,102.5 73.5,100.5 73.5,98.5C 71.5853,98.2155 69.9187,98.5489 68.5,99.5C 67.5386,101.265 67.2053,103.265 67.5,105.5C 66.7515,104.469 66.0848,103.302 65.5,102C 64.5509,101.383 63.7175,101.549 63,102.5C 61.0353,99.3664 58.8686,96.3664 56.5,93.5C 53.9405,94.4347 53.2738,93.6013 54.5,91C 52.6992,90.6827 52.3659,90.016 53.5,89C 50.4277,88.2005 48.7611,89.3671 48.5,92.5C 45.0858,92.7063 42.4191,94.2063 40.5,97C 39.2068,97.49 37.8734,97.6567 36.5,97.5C 36.5,101.5 36.5,105.5 36.5,109.5C 36.5,117.167 36.5,124.833 36.5,132.5C 35.5048,120.345 35.1714,108.011 35.5,95.5C 36.4682,93.3926 36.8016,91.0593 36.5,88.5C 38.5952,87.588 40.5952,86.4213 42.5,85C 49.0307,78.1349 55.864,71.6349 63,65.5C 63.6552,63.3716 64.4886,61.3716 65.5,59.5C 65.5,53.8333 65.5,48.1667 65.5,42.5C 65.8333,42.5 66.1667,42.5 66.5,42.5C 67.4959,42.5858 68.3292,42.2524 69,41.5C 69.6667,49.5 69.6667,57.5 69,65.5C 65.1602,71.6806 63.8268,78.3473 65,85.5C 67.6353,87.4605 69.4686,89.9605 70.5,93C 73.7895,93.8816 77.1228,94.5483 80.5,95C 81.6364,96.1451 82.6364,97.3117 83.5,98.5 Z"/></g>
<g><path style="opacity:1" fill="#3d4b6c" d="M 128.5,68.5 C 129.167,68.5 129.833,68.5 130.5,68.5C 129.27,70.2972 128.604,72.2972 128.5,74.5C 119.909,79.3593 111.242,84.0259 102.5,88.5C 102.5,88.1667 102.5,87.8333 102.5,87.5C 107.833,83.8333 113.167,80.1667 118.5,76.5C 120.191,75.1363 121.858,73.803 123.5,72.5C 125.389,71.396 127.055,70.0627 128.5,68.5 Z"/></g>
<g><path style="opacity:1" fill="#ee544a" d="M 165.5,80.5 C 166.167,80.8333 166.833,81.1667 167.5,81.5C 167.833,83.8333 169.167,85.1667 171.5,85.5C 173.167,86.8333 174.833,88.1667 176.5,89.5C 176.5,97.8333 176.5,106.167 176.5,114.5C 176.167,114.5 175.833,114.5 175.5,114.5C 175.5,114.167 175.5,113.833 175.5,113.5C 175.666,108.821 175.499,104.155 175,99.5C 171.106,95.3923 167.439,91.059 164,86.5C 163.617,87.056 163.117,87.3893 162.5,87.5C 162.335,84.4816 162.502,81.4816 163,78.5C 163.708,79.3805 164.542,80.0472 165.5,80.5 Z"/></g>
<g><path style="opacity:0.694" fill="#db817e" d="M 167.5,81.5 C 169.167,82.5 170.5,83.8333 171.5,85.5C 169.167,85.1667 167.833,83.8333 167.5,81.5 Z"/></g>
<g><path style="opacity:1" fill="#4f3951" d="M 39.5,80.5 C 37.0156,82.5452 36.0156,85.2118 36.5,88.5C 36.8016,91.0593 36.4682,93.3926 35.5,95.5C 35.5,93.5 35.5,91.5 35.5,89.5C 35.5,88.1667 35.5,86.8333 35.5,85.5C 35.5,84.8333 35.5,84.1667 35.5,83.5C 36.2623,81.7376 37.5956,80.7376 39.5,80.5 Z"/></g>
<g><path style="opacity:1" fill="#d45b55" d="M 161.5,76.5 C 163.833,76.8333 165.167,78.1667 165.5,80.5C 164.542,80.0472 163.708,79.3805 163,78.5C 162.502,81.4816 162.335,84.4816 162.5,87.5C 162.5,93.1667 162.5,98.8333 162.5,104.5C 162.5,107.833 162.5,111.167 162.5,114.5C 161.505,102.011 161.171,89.3443 161.5,76.5 Z"/></g>
<g><path style="opacity:1" fill="#9c292f" d="M 35.5,83.5 C 35.5,84.1667 35.5,84.8333 35.5,85.5C 34.2814,87.9139 32.7814,90.2472 31,92.5C 30.0423,103.49 29.2089,114.49 28.5,125.5C 28.2534,128.349 27.5868,131.016 26.5,133.5C 24.8333,132.5 23.5,131.167 22.5,129.5C 23.5832,129.539 24.5832,129.873 25.5,130.5C 27.2077,119.887 27.7077,109.221 27,98.5C 26.439,95.7206 25.6056,93.054 24.5,90.5C 26.8293,92.0024 28.1627,91.3357 28.5,88.5C 31.1117,87.2213 33.4451,85.5547 35.5,83.5 Z"/></g>
<g><path style="opacity:1" fill="#ec483d" d="M 175.5,113.5 C 174.603,112.402 173.77,112.402 173,113.5C 169.917,109.984 166.417,106.984 162.5,104.5C 162.5,98.8333 162.5,93.1667 162.5,87.5C 163.117,87.3893 163.617,87.056 164,86.5C 167.439,91.059 171.106,95.3923 175,99.5C 175.499,104.155 175.666,108.821 175.5,113.5 Z"/></g>
<g><path style="opacity:1" fill="#28557e" d="M 67.5,105.5 C 67.5,107.167 67.5,108.833 67.5,110.5C 63.5,110.5 59.5,110.5 55.5,110.5C 55.815,106.629 55.4816,102.962 54.5,99.5C 53.1667,98.1667 51.8333,98.1667 50.5,99.5C 49.8333,99.5 49.5,99.8333 49.5,100.5C 48.8386,101.718 48.1719,103.051 47.5,104.5C 45.7562,103.97 44.2562,103.97 43,104.5C 42.5348,105.931 41.7014,107.097 40.5,108C 41.4506,108.718 41.6172,109.551 41,110.5C 39.6439,109.62 38.1439,109.286 36.5,109.5C 36.5,105.5 36.5,101.5 36.5,97.5C 37.8734,97.6567 39.2068,97.49 40.5,97C 42.4191,94.2063 45.0858,92.7063 48.5,92.5C 48.7611,89.3671 50.4277,88.2005 53.5,89C 52.3659,90.016 52.6992,90.6827 54.5,91C 53.2738,93.6013 53.9405,94.4347 56.5,93.5C 58.8686,96.3664 61.0353,99.3664 63,102.5C 63.7175,101.549 64.5509,101.383 65.5,102C 66.0848,103.302 66.7515,104.469 67.5,105.5 Z"/></g>
<g><path style="opacity:1" fill="#2c638f" d="M 158.5,49.5 C 159.404,50.209 159.737,51.209 159.5,52.5C 158.167,53.1667 157.167,54.1667 156.5,55.5C 149.581,59.5834 143.747,64.9167 139,71.5C 129.255,80.416 119.755,89.416 110.5,98.5C 107.287,98.19 104.287,98.5233 101.5,99.5C 100.566,100.568 100.232,101.901 100.5,103.5C 99.9862,105.868 98.8195,107.868 97,109.5C 95.3335,108.66 95.1669,109.16 96.5,111C 94.065,111.075 93.3984,111.908 94.5,113.5C 91.4009,111.855 88.0675,110.688 84.5,110C 81.3288,105.857 82.3288,103.357 87.5,102.5C 90.4373,103.47 93.4373,104.137 96.5,104.5C 96.5323,102.381 95.5323,101.048 93.5,100.5C 93.5,100.167 93.5,99.8333 93.5,99.5C 96.4283,100.513 97.7616,99.1797 97.5,95.5C 98.552,95.6495 99.552,95.4828 100.5,95C 99.7203,93.927 99.887,92.7604 101,91.5C 102.744,92.0362 104.577,92.3696 106.5,92.5C 116.745,84.0874 127.412,76.2541 138.5,69C 141.528,66.8193 143.528,63.986 144.5,60.5C 148.397,58.8788 152.064,56.7121 155.5,54C 157.141,52.871 158.141,51.371 158.5,49.5 Z"/></g>
<g><path style="opacity:1" fill="#2e90c1" d="M 158.5,57.5 C 156.536,63.8833 153.703,69.8833 150,75.5C 149.047,78.4318 148.547,81.4318 148.5,84.5C 147.5,84.5 146.5,84.5 145.5,84.5C 145.852,87.4284 146.518,90.2617 147.5,93C 146.953,93.9246 146.287,94.7579 145.5,95.5C 144.604,94.4937 143.938,94.4937 143.5,95.5C 144.522,96.354 145.355,97.354 146,98.5C 146.82,105.014 146.653,111.347 145.5,117.5C 140.944,112.082 136.611,106.415 132.5,100.5C 130.955,99.5481 129.288,99.2148 127.5,99.5C 133.383,98.9509 136.717,95.6175 137.5,89.5C 136.612,87.845 136.112,86.1783 136,84.5C 142.664,75.8434 149.33,67.1767 156,58.5C 156.671,57.7476 157.504,57.4142 158.5,57.5 Z"/></g>
<g><path style="opacity:1" fill="#2971a1" d="M 156.5,55.5 C 144.393,68.4396 131.726,80.9396 118.5,93C 120.891,94.3086 120.891,95.3086 118.5,96C 119.756,96.4169 120.423,97.2502 120.5,98.5C 117.167,98.5 113.833,98.5 110.5,98.5C 119.755,89.416 129.255,80.416 139,71.5C 143.747,64.9167 149.581,59.5834 156.5,55.5 Z"/></g>
<g><path style="opacity:1" fill="#8c272e" d="M 35.5,85.5 C 35.5,86.8333 35.5,88.1667 35.5,89.5C 34.7321,90.2625 34.2321,91.2625 34,92.5C 33.1836,107.212 33.3503,121.878 34.5,136.5C 34.0431,137.298 33.3764,137.631 32.5,137.5C 30.7541,135.748 28.7541,134.415 26.5,133.5C 27.5868,131.016 28.2534,128.349 28.5,125.5C 29.2089,114.49 30.0423,103.49 31,92.5C 32.7814,90.2472 34.2814,87.9139 35.5,85.5 Z"/></g>
<g><path style="opacity:0.996" fill="#cf6c6a" d="M 17.5,94.5 C 14.5194,98.1811 10.8527,101.181 6.5,103.5C 6.41423,102.504 6.74756,101.671 7.5,101C 11.0262,98.9441 14.3595,96.7775 17.5,94.5 Z"/></g>
<g><path style="opacity:1" fill="#aa2e32" d="M 22.5,91.5 C 22.8417,90.6618 23.5084,90.3284 24.5,90.5C 25.6056,93.054 26.439,95.7206 27,98.5C 27.7077,109.221 27.2077,119.887 25.5,130.5C 24.5832,129.873 23.5832,129.539 22.5,129.5C 19.8908,128.557 17.8908,126.89 16.5,124.5C 17.1667,124.5 17.8333,124.5 18.5,124.5C 19.8057,125.968 21.3057,127.301 23,128.5C 23.2382,124.778 23.7382,121.111 24.5,117.5C 24.4909,112.861 24.4909,107.861 24.5,102.5C 24.0682,98.6501 23.4016,94.9835 22.5,91.5 Z"/></g>
<g><path style="opacity:1" fill="#b42b30" d="M 22.5,91.5 C 23.4016,94.9835 24.0682,98.6501 24.5,102.5C 24.4909,107.861 24.4909,112.861 24.5,117.5C 23.7382,121.111 23.2382,124.778 23,128.5C 21.3057,127.301 19.8057,125.968 18.5,124.5C 18.8062,114.963 19.4729,104.963 20.5,94.5C 19.5,94.5 18.5,94.5 17.5,94.5C 17.8333,93.5 18.5,92.8333 19.5,92.5C 20.609,92.4431 21.609,92.1098 22.5,91.5 Z"/></g>
<g><path style="opacity:1" fill="#9db6cb" d="M 83.5,99.5 C 83.5,99.1667 83.5,98.8333 83.5,98.5C 84.1667,98.5 84.8333,98.5 85.5,98.5C 88.2788,98.2786 90.9455,98.612 93.5,99.5C 93.5,99.8333 93.5,100.167 93.5,100.5C 90.2139,99.7929 86.8806,99.4595 83.5,99.5 Z"/></g>
<g><path style="opacity:1" fill="#8db2cb" d="M 101.5,99.5 C 104.287,98.5233 107.287,98.19 110.5,98.5C 113.833,98.5 117.167,98.5 120.5,98.5C 121.5,98.5 122.5,98.5 123.5,98.5C 123.5,100.167 123.5,101.833 123.5,103.5C 120.5,103.5 117.5,103.5 114.5,103.5C 116.948,102.527 119.615,102.194 122.5,102.5C 122.5,101.5 122.5,100.5 122.5,99.5C 115.5,99.5 108.5,99.5 101.5,99.5 Z"/></g>
<g><path style="opacity:1" fill="#c83636" d="M 17.5,94.5 C 18.5,94.5 19.5,94.5 20.5,94.5C 19.4729,104.963 18.8062,114.963 18.5,124.5C 17.8333,124.5 17.1667,124.5 16.5,124.5C 14.8333,123.5 13.5,122.167 12.5,120.5C 11.4154,118.413 9.74876,117.08 7.5,116.5C 6.30646,115.728 5.30646,114.728 4.5,113.5C 3.52435,112.185 2.52435,110.852 1.5,109.5C 2.12723,108.583 2.46056,107.583 2.5,106.5C 3.26231,104.738 4.59565,103.738 6.5,103.5C 10.8527,101.181 14.5194,98.1811 17.5,94.5 Z"/></g>
<g><path style="opacity:1" fill="#732d3c" d="M 35.5,89.5 C 35.5,91.5 35.5,93.5 35.5,95.5C 35.1714,108.011 35.5048,120.345 36.5,132.5C 36.5,132.833 36.5,133.167 36.5,133.5C 37.1336,136.741 37.1336,139.408 36.5,141.5C 35.609,140.89 34.609,140.557 33.5,140.5C 33.4431,139.391 33.1098,138.391 32.5,137.5C 33.3764,137.631 34.0431,137.298 34.5,136.5C 33.3503,121.878 33.1836,107.212 34,92.5C 34.2321,91.2625 34.7321,90.2625 35.5,89.5 Z"/></g>
<g><path style="opacity:1" fill="#e4ecf2" d="M 83.5,99.5 C 86.8806,99.4595 90.2139,99.7929 93.5,100.5C 95.5323,101.048 96.5323,102.381 96.5,104.5C 93.4373,104.137 90.4373,103.47 87.5,102.5C 82.3288,103.357 81.3288,105.857 84.5,110C 88.0675,110.688 91.4009,111.855 94.5,113.5C 98.1692,115.438 99.3359,118.438 98,122.5C 95.0895,127.863 90.5895,129.863 84.5,128.5C 80.3927,128.093 78.7261,126.093 79.5,122.5C 79.56,121.957 79.8933,121.624 80.5,121.5C 81.5178,122.193 82.5178,122.859 83.5,123.5C 84.7933,124.158 86.2933,124.492 88,124.5C 94.992,124.025 96.1587,121.192 91.5,116C 89.8455,115.392 88.1789,114.892 86.5,114.5C 80.9967,113.514 78.33,110.181 78.5,104.5C 79.1667,101.833 80.8333,100.167 83.5,99.5 Z"/></g>
<g><path style="opacity:1" fill="#f5f8fa" d="M 50.5,99.5 C 51.5,99.5 52.5,99.5 53.5,99.5C 53.1832,103.702 53.5166,107.702 54.5,111.5C 59.1667,111.5 63.8333,111.5 68.5,111.5C 69.1663,107.979 69.8329,104.313 70.5,100.5C 71.8333,109.5 71.8333,118.5 70.5,127.5C 69.833,123.353 69.1663,119.353 68.5,115.5C 63.5,115.5 58.5,115.5 53.5,115.5C 53.5,119.5 53.5,123.5 53.5,127.5C 52.5,127.5 51.5,127.5 50.5,127.5C 50.5,118.167 50.5,108.833 50.5,99.5 Z"/></g>
<g><path style="opacity:1" fill="#9eb6ca" d="M 50.5,99.5 C 51.8333,98.1667 53.1667,98.1667 54.5,99.5C 54.5,103.5 54.5,107.5 54.5,111.5C 53.5166,107.702 53.1832,103.702 53.5,99.5C 52.5,99.5 51.5,99.5 50.5,99.5 Z"/></g>
<g><path style="opacity:1" fill="#d5e0e9" d="M 68.5,99.5 C 69.8333,99.5 71.1667,99.5 72.5,99.5C 72.5,109.167 72.5,118.833 72.5,128.5C 71.1667,128.5 69.8333,128.5 68.5,128.5C 68.5,124.5 68.5,120.5 68.5,116.5C 68.5,116.167 68.5,115.833 68.5,115.5C 69.1663,119.353 69.833,123.353 70.5,127.5C 71.8333,118.5 71.8333,109.5 70.5,100.5C 69.8329,104.313 69.1663,107.979 68.5,111.5C 68.5,107.5 68.5,103.5 68.5,99.5 Z"/></g>
<g><path style="opacity:1" fill="#f6f9fb" d="M 101.5,99.5 C 108.5,99.5 115.5,99.5 122.5,99.5C 122.5,100.5 122.5,101.5 122.5,102.5C 119.615,102.194 116.948,102.527 114.5,103.5C 113.508,111.316 113.174,119.316 113.5,127.5C 112.5,127.5 111.5,127.5 110.5,127.5C 110.5,119.167 110.5,110.833 110.5,102.5C 107.5,102.5 104.5,102.5 101.5,102.5C 101.5,101.5 101.5,100.5 101.5,99.5 Z"/></g>
<g><path style="opacity:1" fill="#f4f8fb" d="M 127.5,99.5 C 129.288,99.2148 130.955,99.5481 132.5,100.5C 136.611,106.415 140.944,112.082 145.5,117.5C 145.328,118.492 145.662,119.158 146.5,119.5C 146.56,120.043 146.893,120.376 147.5,120.5C 148.167,113.833 148.833,107.167 149.5,100.5C 150.498,109.475 150.832,118.475 150.5,127.5C 148.053,127.385 146.053,126.385 144.5,124.5C 140.756,118.687 136.756,113.02 132.5,107.5C 132.44,106.957 132.107,106.624 131.5,106.5C 130.503,113.468 130.17,120.468 130.5,127.5C 129.5,127.5 128.5,127.5 127.5,127.5C 127.5,118.167 127.5,108.833 127.5,99.5 Z"/></g>
<g><path style="opacity:1" fill="#d6e5ef" d="M 151.5,99.5 C 151.827,109.015 151.494,118.348 150.5,127.5C 150.832,118.475 150.498,109.475 149.5,100.5C 148.833,107.167 148.167,113.833 147.5,120.5C 146.893,120.376 146.56,120.043 146.5,119.5C 147.491,113.021 147.824,106.354 147.5,99.5C 148.833,99.5 150.167,99.5 151.5,99.5 Z"/></g>
<g><path style="opacity:1" fill="#6fb3d4" d="M 151.5,99.5 C 152.494,108.986 152.827,118.652 152.5,128.5C 150.833,128.5 149.167,128.5 147.5,128.5C 145.738,127.738 144.738,126.404 144.5,124.5C 146.053,126.385 148.053,127.385 150.5,127.5C 151.494,118.348 151.827,109.015 151.5,99.5 Z"/></g>
<g><path style="opacity:1" fill="#3995c4" d="M 158.5,57.5 C 158.833,57.5 159.167,57.5 159.5,57.5C 159.334,63.5092 159.501,69.5092 160,75.5C 160.383,76.056 160.883,76.3893 161.5,76.5C 161.171,89.3443 161.505,102.011 162.5,114.5C 164.806,116.139 166.806,118.139 168.5,120.5C 169.671,121.345 171.005,122.011 172.5,122.5C 173.666,124.166 173.666,125.833 172.5,127.5C 169.455,130.218 166.455,132.884 163.5,135.5C 161.228,136.441 159.228,137.774 157.5,139.5C 156.069,139.119 155.236,138.119 155,136.5C 154.517,137.448 154.351,138.448 154.5,139.5C 153.127,139.657 151.793,139.49 150.5,139C 151.167,138.667 151.833,138.333 152.5,138C 150.083,136.856 149.416,135.19 150.5,133C 149.449,131.615 148.116,130.615 146.5,130C 147.056,129.617 147.389,129.117 147.5,128.5C 149.167,128.5 150.833,128.5 152.5,128.5C 152.827,118.652 152.494,108.986 151.5,99.5C 150.167,99.5 148.833,99.5 147.5,99.5C 147.824,106.354 147.491,113.021 146.5,119.5C 145.662,119.158 145.328,118.492 145.5,117.5C 146.653,111.347 146.82,105.014 146,98.5C 145.355,97.354 144.522,96.354 143.5,95.5C 143.938,94.4937 144.604,94.4937 145.5,95.5C 146.287,94.7579 146.953,93.9246 147.5,93C 146.518,90.2617 145.852,87.4284 145.5,84.5C 146.5,84.5 147.5,84.5 148.5,84.5C 148.547,81.4318 149.047,78.4318 150,75.5C 153.703,69.8833 156.536,63.8833 158.5,57.5 Z"/></g>
<g><path style="opacity:1" fill="#a0c1d7" d="M 101.5,99.5 C 101.5,100.5 101.5,101.5 101.5,102.5C 104.5,102.5 107.5,102.5 110.5,102.5C 110.5,110.833 110.5,119.167 110.5,127.5C 111.5,127.5 112.5,127.5 113.5,127.5C 113.174,119.316 113.508,111.316 114.5,103.5C 114.5,111.833 114.5,120.167 114.5,128.5C 112.833,128.5 111.167,128.5 109.5,128.5C 109.826,119.983 109.493,111.65 108.5,103.5C 105.833,103.5 103.167,103.5 100.5,103.5C 100.232,101.901 100.566,100.568 101.5,99.5 Z"/></g>
<g><path style="opacity:0.918" fill="#d06c6a" d="M 2.5,106.5 C 2.46056,107.583 2.12723,108.583 1.5,109.5C 2.52435,110.852 3.52435,112.185 4.5,113.5C 2.5887,112.925 0.922032,111.925 -0.5,110.5C -0.5,109.5 -0.5,108.5 -0.5,107.5C 0.391047,106.89 1.39105,106.557 2.5,106.5 Z"/></g>
<g><path style="opacity:0.996" fill="#6a8cac" d="M 68.5,99.5 C 69.9187,98.5489 71.5853,98.2155 73.5,98.5C 73.5,100.5 73.5,102.5 73.5,104.5C 73.5,112.5 73.5,120.5 73.5,128.5C 73.1667,128.5 72.8333,128.5 72.5,128.5C 72.5,118.833 72.5,109.167 72.5,99.5C 71.1667,99.5 69.8333,99.5 68.5,99.5 Z"/></g>
<g><path style="opacity:1" fill="#a6cde2" d="M 127.5,99.5 C 127.5,108.833 127.5,118.167 127.5,127.5C 128.5,127.5 129.5,127.5 130.5,127.5C 130.17,120.468 130.503,113.468 131.5,106.5C 132.107,106.624 132.44,106.957 132.5,107.5C 131.509,114.313 131.175,121.313 131.5,128.5C 129.833,128.5 128.167,128.5 126.5,128.5C 126.173,118.652 126.506,108.986 127.5,99.5 Z"/></g>
<g><path style="opacity:1" fill="#466f95" d="M 54.5,99.5 C 55.4816,102.962 55.815,106.629 55.5,110.5C 59.5,110.5 63.5,110.5 67.5,110.5C 67.5,108.833 67.5,107.167 67.5,105.5C 67.2053,103.265 67.5386,101.265 68.5,99.5C 68.5,103.5 68.5,107.5 68.5,111.5C 63.8333,111.5 59.1667,111.5 54.5,111.5C 54.5,107.5 54.5,103.5 54.5,99.5 Z"/></g>
<g><path style="opacity:1" fill="#3073a4" d="M 100.5,103.5 C 103.167,103.5 105.833,103.5 108.5,103.5C 108.83,110.2 108.497,116.866 107.5,123.5C 106.833,123.167 106.167,122.833 105.5,122.5C 103.014,124.443 100.681,126.609 98.5,129C 99.5,130 100.5,131 101.5,132C 99.656,135.598 97.656,139.098 95.5,142.5C 96.1667,142.833 96.8333,143.167 97.5,143.5C 96.1054,146.548 94.4387,149.382 92.5,152C 92.6667,152.833 92.8333,153.667 93,154.5C 93.6543,153.304 94.1543,153.304 94.5,154.5C 89.1894,157.887 89.5227,160.054 95.5,161C 94.9594,163.865 96.2927,165.865 99.5,167C 98.2842,168.74 96.6175,169.74 94.5,170C 92.8978,171.935 91.7311,174.101 91,176.5C 90,177.833 89,177.833 88,176.5C 87.5357,177.094 87.369,177.761 87.5,178.5C 82.7918,174.157 78.1251,169.824 73.5,165.5C 73.3285,163.508 73.9951,161.842 75.5,160.5C 74.376,159.086 73.376,157.586 72.5,156C 73.9308,155.535 75.0975,154.701 76,153.5C 76.3333,153.833 76.6667,154.167 77,154.5C 77.3149,151.853 78.4816,151.187 80.5,152.5C 81.2508,151.624 81.7508,150.624 82,149.5C 82.7175,150.451 83.5509,150.617 84.5,150C 86.6132,147.045 88.2798,143.878 89.5,140.5C 88.5209,138.721 88.8542,137.055 90.5,135.5C 90.3848,132.922 89.0514,131.422 86.5,131C 88.1667,130.667 89.8333,130.333 91.5,130C 88.9644,129.814 86.631,129.314 84.5,128.5C 90.5895,129.863 95.0895,127.863 98,122.5C 99.3359,118.438 98.1692,115.438 94.5,113.5C 93.3984,111.908 94.065,111.075 96.5,111C 95.1669,109.16 95.3335,108.66 97,109.5C 98.8195,107.868 99.9862,105.868 100.5,103.5 Z"/></g>
<g><path style="opacity:1" fill="#2b618e" d="M 73.5,104.5 C 74.3149,105.429 75.1482,106.429 76,107.5C 76.3768,106.058 77.2101,105.058 78.5,104.5C 78.33,110.181 80.9967,113.514 86.5,114.5C 87.287,116.104 88.6203,116.771 90.5,116.5C 90.6495,117.552 90.4828,118.552 90,119.5C 88.0015,121.253 85.8348,122.587 83.5,123.5C 82.5178,122.859 81.5178,122.193 80.5,121.5C 79.8933,121.624 79.56,121.957 79.5,122.5C 77.2901,123.455 76.9568,124.955 78.5,127C 76.8896,128.108 75.2229,128.608 73.5,128.5C 73.5,120.5 73.5,112.5 73.5,104.5 Z"/></g>
<g><path style="opacity:1" fill="#d23635" d="M 162.5,104.5 C 166.417,106.984 169.917,109.984 173,113.5C 173.77,112.402 174.603,112.402 175.5,113.5C 175.5,113.833 175.5,114.167 175.5,114.5C 173.322,116.745 170.988,118.745 168.5,120.5C 166.806,118.139 164.806,116.139 162.5,114.5C 162.5,111.167 162.5,107.833 162.5,104.5 Z"/></g>
<g><path style="opacity:1" fill="#91acc3" d="M 50.5,99.5 C 50.5,108.833 50.5,118.167 50.5,127.5C 51.5,127.5 52.5,127.5 53.5,127.5C 53.5,123.5 53.5,119.5 53.5,115.5C 58.5,115.5 63.5,115.5 68.5,115.5C 68.5,115.833 68.5,116.167 68.5,116.5C 68.1667,116.5 67.8333,116.5 67.5,116.5C 63.1667,116.5 58.8333,116.5 54.5,116.5C 54.5,120.5 54.5,124.5 54.5,128.5C 52.8333,128.5 51.1667,128.5 49.5,128.5C 49.5,119.167 49.5,109.833 49.5,100.5C 49.5,99.8333 49.8333,99.5 50.5,99.5 Z"/></g>
<g><path style="opacity:1" fill="#2d6390" d="M 49.5,100.5 C 49.5,109.833 49.5,119.167 49.5,128.5C 51.1667,128.5 52.8333,128.5 54.5,128.5C 54.5,124.5 54.5,120.5 54.5,116.5C 58.8333,116.5 63.1667,116.5 67.5,116.5C 67.5,120.833 67.5,125.167 67.5,129.5C 66.325,129.281 65.325,129.614 64.5,130.5C 70.9877,132.368 70.9877,133.702 64.5,134.5C 64.6463,136.942 63.813,137.609 62,136.5C 61.6667,137.167 61.3333,137.833 61,138.5C 59.2215,137.521 57.5548,137.854 56,139.5C 53.9068,138.754 51.9068,138.421 50,138.5C 48.6012,139.227 47.1012,139.727 45.5,140C 47.7899,141.777 49.4566,143.944 50.5,146.5C 48.5,144.833 46.5,143.167 44.5,141.5C 42.1667,138.5 39.5,135.833 36.5,133.5C 36.5,133.167 36.5,132.833 36.5,132.5C 36.5,124.833 36.5,117.167 36.5,109.5C 38.1439,109.286 39.6439,109.62 41,110.5C 41.6172,109.551 41.4506,108.718 40.5,108C 41.7014,107.097 42.5348,105.931 43,104.5C 44.2562,103.97 45.7562,103.97 47.5,104.5C 48.1719,103.051 48.8386,101.718 49.5,100.5 Z"/></g>
<g><path style="opacity:0.02" fill="#fdfdfd" d="M 176.5,89.5 C 177.33,97.9903 177.83,106.657 178,115.5C 179.087,112.309 179.92,108.975 180.5,105.5C 184.851,108.194 189.184,110.86 193.5,113.5C 193.5,139.833 193.5,166.167 193.5,192.5C 128.833,192.5 64.1667,192.5 -0.5,192.5C -0.5,165.167 -0.5,137.833 -0.5,110.5C 0.922032,111.925 2.5887,112.925 4.5,113.5C 5.30646,114.728 6.30646,115.728 7.5,116.5C 8.58457,118.587 10.2512,119.92 12.5,120.5C 13.5,122.167 14.8333,123.5 16.5,124.5C 17.8908,126.89 19.8908,128.557 22.5,129.5C 23.5,131.167 24.8333,132.5 26.5,133.5C 28.5,136.167 30.8333,138.5 33.5,140.5C 34.0885,143.61 34.7552,146.61 35.5,149.5C 36.1667,149.833 36.8333,150.167 37.5,150.5C 38.5846,152.587 40.2512,153.92 42.5,154.5C 43.7358,157.621 46.0692,158.955 49.5,158.5C 51.0269,158.573 52.0269,157.906 52.5,156.5C 53.1667,155.833 53.8333,155.167 54.5,154.5C 55.1667,154.167 55.8333,153.833 56.5,153.5C 57.391,154.11 58.391,154.443 59.5,154.5C 62.5628,158.566 66.2294,161.899 70.5,164.5C 79.1935,173.195 88.1935,181.528 97.5,189.5C 98.7082,190.782 100.042,190.782 101.5,189.5C 108.613,182.378 115.946,175.711 123.5,169.5C 127.683,165.916 132.016,162.582 136.5,159.5C 138.246,161.252 140.246,162.585 142.5,163.5C 144.815,166.189 146.815,165.855 148.5,162.5C 150.027,162.573 151.027,161.906 151.5,160.5C 153.239,157.757 155.573,155.757 158.5,154.5C 161.089,153.581 163.089,151.914 164.5,149.5C 165.579,147.457 167.246,146.124 169.5,145.5C 170.853,143.872 170.519,142.538 168.5,141.5C 167.5,140.833 166.5,140.167 165.5,139.5C 164.4,138.395 163.733,137.062 163.5,135.5C 166.455,132.884 169.455,130.218 172.5,127.5C 173.666,125.833 173.666,124.166 172.5,122.5C 174.295,120.478 175.628,117.811 176.5,114.5C 176.5,106.167 176.5,97.8333 176.5,89.5 Z"/></g>
<g><path style="opacity:1" fill="#4278a3" d="M 86.5,114.5 C 88.1789,114.892 89.8455,115.392 91.5,116C 96.1587,121.192 94.992,124.025 88,124.5C 86.2933,124.492 84.7933,124.158 83.5,123.5C 85.8348,122.587 88.0015,121.253 90,119.5C 90.4828,118.552 90.6495,117.552 90.5,116.5C 88.6203,116.771 87.287,116.104 86.5,114.5 Z"/></g>
<g><path style="opacity:0.012" fill="#e8cdce" d="M 175.5,114.5 C 175.833,114.5 176.167,114.5 176.5,114.5C 175.628,117.811 174.295,120.478 172.5,122.5C 171.005,122.011 169.671,121.345 168.5,120.5C 170.988,118.745 173.322,116.745 175.5,114.5 Z"/></g>
<g><path style="opacity:0.82" fill="#d27675" d="M 7.5,116.5 C 9.74876,117.08 11.4154,118.413 12.5,120.5C 10.2512,119.92 8.58457,118.587 7.5,116.5 Z"/></g>
<g><path style="opacity:1" fill="#2f6c9a" d="M 67.5,116.5 C 67.8333,116.5 68.1667,116.5 68.5,116.5C 68.5,120.5 68.5,124.5 68.5,128.5C 69.8333,128.5 71.1667,128.5 72.5,128.5C 72.8333,128.5 73.1667,128.5 73.5,128.5C 75.2229,128.608 76.8896,128.108 78.5,127C 76.9568,124.955 77.2901,123.455 79.5,122.5C 78.7261,126.093 80.3927,128.093 84.5,128.5C 86.631,129.314 88.9644,129.814 91.5,130C 89.8333,130.333 88.1667,130.667 86.5,131C 89.0514,131.422 90.3848,132.922 90.5,135.5C 88.8542,137.055 88.5209,138.721 89.5,140.5C 88.2798,143.878 86.6132,147.045 84.5,150C 83.5509,150.617 82.7175,150.451 82,149.5C 81.7508,150.624 81.2508,151.624 80.5,152.5C 78.4816,151.187 77.3149,151.853 77,154.5C 76.6667,154.167 76.3333,153.833 76,153.5C 75.0975,154.701 73.9308,155.535 72.5,156C 73.376,157.586 74.376,159.086 75.5,160.5C 73.9951,161.842 73.3285,163.508 73.5,165.5C 72.609,164.89 71.609,164.557 70.5,164.5C 67.4372,160.434 63.7706,157.101 59.5,154.5C 58.391,154.443 57.391,154.11 56.5,153.5C 55.2427,150.573 53.2427,148.239 50.5,146.5C 49.4566,143.944 47.7899,141.777 45.5,140C 47.1012,139.727 48.6012,139.227 50,138.5C 51.9068,138.421 53.9068,138.754 56,139.5C 57.5548,137.854 59.2215,137.521 61,138.5C 61.3333,137.833 61.6667,137.167 62,136.5C 63.813,137.609 64.6463,136.942 64.5,134.5C 70.9877,133.702 70.9877,132.368 64.5,130.5C 65.325,129.614 66.325,129.281 67.5,129.5C 67.5,125.167 67.5,120.833 67.5,116.5 Z"/></g>
<g><path style="opacity:1" fill="#3388bb" d="M 132.5,107.5 C 136.756,113.02 140.756,118.687 144.5,124.5C 144.738,126.404 145.738,127.738 147.5,128.5C 147.389,129.117 147.056,129.617 146.5,130C 148.116,130.615 149.449,131.615 150.5,133C 149.416,135.19 150.083,136.856 152.5,138C 151.833,138.333 151.167,138.667 150.5,139C 151.793,139.49 153.127,139.657 154.5,139.5C 154.351,138.448 154.517,137.448 155,136.5C 155.236,138.119 156.069,139.119 157.5,139.5C 157.5,139.833 157.5,140.167 157.5,140.5C 151.783,144.698 146.45,149.364 141.5,154.5C 138.833,155.167 137.167,156.833 136.5,159.5C 132.016,162.582 127.683,165.916 123.5,169.5C 123.461,168.417 123.127,167.417 122.5,166.5C 124.991,165.459 124.991,164.626 122.5,164C 123.167,162.333 123.833,160.667 124.5,159C 122.477,155.817 121.977,152.317 123,148.5C 123.766,152.269 124.599,152.102 125.5,148C 125.333,147.5 125.167,147 125,146.5C 123.16,147.833 122.66,147.666 123.5,146C 122.643,145.311 121.977,144.478 121.5,143.5C 123.478,143.262 125.145,141.929 126.5,139.5C 127.873,137.51 128.873,135.343 129.5,133C 128.051,131.883 126.384,131.216 124.5,131C 126.5,130.667 128.5,130.333 130.5,130C 128.942,129.79 127.609,129.29 126.5,128.5C 128.167,128.5 129.833,128.5 131.5,128.5C 131.175,121.313 131.509,114.313 132.5,107.5 Z"/></g>
<g><path style="opacity:1" fill="#317eb0" d="M 159.5,52.5 C 159.5,54.1667 159.5,55.8333 159.5,57.5C 159.167,57.5 158.833,57.5 158.5,57.5C 157.504,57.4142 156.671,57.7476 156,58.5C 149.33,67.1767 142.664,75.8434 136,84.5C 136.112,86.1783 136.612,87.845 137.5,89.5C 136.717,95.6175 133.383,98.9509 127.5,99.5C 126.506,108.986 126.173,118.652 126.5,128.5C 127.609,129.29 128.942,129.79 130.5,130C 128.5,130.333 126.5,130.667 124.5,131C 126.384,131.216 128.051,131.883 129.5,133C 128.873,135.343 127.873,137.51 126.5,139.5C 125.145,141.929 123.478,143.262 121.5,143.5C 121.977,144.478 122.643,145.311 123.5,146C 122.66,147.666 123.16,147.833 125,146.5C 125.167,147 125.333,147.5 125.5,148C 124.599,152.102 123.766,152.269 123,148.5C 121.977,152.317 122.477,155.817 124.5,159C 123.833,160.667 123.167,162.333 122.5,164C 124.991,164.626 124.991,165.459 122.5,166.5C 123.127,167.417 123.461,168.417 123.5,169.5C 115.946,175.711 108.613,182.378 101.5,189.5C 100.042,190.782 98.7082,190.782 97.5,189.5C 94.1667,185.833 90.8333,182.167 87.5,178.5C 87.369,177.761 87.5357,177.094 88,176.5C 89,177.833 90,177.833 91,176.5C 91.7311,174.101 92.8978,171.935 94.5,170C 96.6175,169.74 98.2842,168.74 99.5,167C 96.2927,165.865 94.9594,163.865 95.5,161C 89.5227,160.054 89.1894,157.887 94.5,154.5C 94.1543,153.304 93.6543,153.304 93,154.5C 92.8333,153.667 92.6667,152.833 92.5,152C 94.4387,149.382 96.1054,146.548 97.5,143.5C 96.8333,143.167 96.1667,142.833 95.5,142.5C 97.656,139.098 99.656,135.598 101.5,132C 100.5,131 99.5,130 98.5,129C 100.681,126.609 103.014,124.443 105.5,122.5C 106.167,122.833 106.833,123.167 107.5,123.5C 108.497,116.866 108.83,110.2 108.5,103.5C 109.493,111.65 109.826,119.983 109.5,128.5C 111.167,128.5 112.833,128.5 114.5,128.5C 114.5,120.167 114.5,111.833 114.5,103.5C 117.5,103.5 120.5,103.5 123.5,103.5C 123.5,101.833 123.5,100.167 123.5,98.5C 122.5,98.5 121.5,98.5 120.5,98.5C 120.423,97.2502 119.756,96.4169 118.5,96C 120.891,95.3086 120.891,94.3086 118.5,93C 131.726,80.9396 144.393,68.4396 156.5,55.5C 157.167,54.1667 158.167,53.1667 159.5,52.5 Z"/></g>
<g><path style="opacity:0.867" fill="#b96c6f" d="M 26.5,133.5 C 28.7541,134.415 30.7541,135.748 32.5,137.5C 33.1098,138.391 33.4431,139.391 33.5,140.5C 30.8333,138.5 28.5,136.167 26.5,133.5 Z"/></g>
<g><path style="opacity:1" fill="#622938" d="M 36.5,133.5 C 39.5,135.833 42.1667,138.5 44.5,141.5C 43.209,141.263 42.209,141.596 41.5,142.5C 40.5084,142.328 39.8417,142.662 39.5,143.5C 39.1667,143.5 38.8333,143.5 38.5,143.5C 38.1583,142.662 37.4916,142.328 36.5,142.5C 36.5,142.167 36.5,141.833 36.5,141.5C 37.1336,139.408 37.1336,136.741 36.5,133.5 Z"/></g>
<g><path style="opacity:1" fill="#882e37" d="M 41.5,142.5 C 42.209,141.596 43.209,141.263 44.5,141.5C 46.5,143.167 48.5,144.833 50.5,146.5C 53.2427,148.239 55.2427,150.573 56.5,153.5C 55.8333,153.833 55.1667,154.167 54.5,154.5C 54.5,153.833 54.5,153.167 54.5,152.5C 50.3557,148.927 46.0223,145.594 41.5,142.5 Z"/></g>
<g><path style="opacity:1" fill="#9d272d" d="M 39.5,143.5 C 39.8417,142.662 40.5084,142.328 41.5,142.5C 46.0223,145.594 50.3557,148.927 54.5,152.5C 50.0002,150.481 46.0002,147.648 42.5,144C 41.552,143.517 40.552,143.351 39.5,143.5 Z"/></g>
<g><path style="opacity:0.02" fill="#e6cbcd" d="M 33.5,140.5 C 34.609,140.557 35.609,140.89 36.5,141.5C 36.5,141.833 36.5,142.167 36.5,142.5C 37.7345,144.398 37.4011,146.065 35.5,147.5C 35.5,148.167 35.5,148.833 35.5,149.5C 34.7552,146.61 34.0885,143.61 33.5,140.5 Z"/></g>
<g><path style="opacity:0.518" fill="#da8987" d="M 168.5,141.5 C 170.519,142.538 170.853,143.872 169.5,145.5C 169.167,144.167 168.833,142.833 168.5,141.5 Z"/></g>
<g><path style="opacity:1" fill="#e14740" d="M 165.5,139.5 C 166.5,140.167 167.5,140.833 168.5,141.5C 168.833,142.833 169.167,144.167 169.5,145.5C 167.246,146.124 165.579,147.457 164.5,149.5C 161.911,150.419 159.911,152.086 158.5,154.5C 155.573,155.757 153.239,157.757 151.5,160.5C 149.973,160.427 148.973,161.094 148.5,162.5C 146.815,165.855 144.815,166.189 142.5,163.5C 141.833,162.5 141.167,161.5 140.5,160.5C 142.927,160.477 145.26,159.977 147.5,159C 152.661,151.674 158.661,145.174 165.5,139.5 Z"/></g>
<g><path style="opacity:0.894" fill="#d96f6b" d="M 36.5,142.5 C 37.4916,142.328 38.1583,142.662 38.5,143.5C 38.9118,145.973 37.9118,147.306 35.5,147.5C 37.4011,146.065 37.7345,144.398 36.5,142.5 Z"/></g>
<g><path style="opacity:1" fill="#c83434" d="M 163.5,135.5 C 163.733,137.062 164.4,138.395 165.5,139.5C 158.661,145.174 152.661,151.674 147.5,159C 145.26,159.977 142.927,160.477 140.5,160.5C 139.833,160.5 139.5,160.167 139.5,159.5C 146.608,154.344 152.608,148.01 157.5,140.5C 157.5,140.167 157.5,139.833 157.5,139.5C 159.228,137.774 161.228,136.441 163.5,135.5 Z"/></g>
<g><path style="opacity:0.855" fill="#dd7874" d="M 37.5,150.5 C 39.7488,151.08 41.4154,152.413 42.5,154.5C 40.2512,153.92 38.5846,152.587 37.5,150.5 Z"/></g>
<g><path style="opacity:0.106" fill="#e2c3c4" d="M 164.5,149.5 C 163.089,151.914 161.089,153.581 158.5,154.5C 159.911,152.086 161.911,150.419 164.5,149.5 Z"/></g>
<g><path style="opacity:1" fill="#db413c" d="M 38.5,143.5 C 38.8333,143.5 39.1667,143.5 39.5,143.5C 40.552,143.351 41.552,143.517 42.5,144C 46.0002,147.648 50.0002,150.481 54.5,152.5C 54.5,153.167 54.5,153.833 54.5,154.5C 53.8333,155.167 53.1667,155.833 52.5,156.5C 50.9731,156.427 49.9731,157.094 49.5,158.5C 46.0692,158.955 43.7358,157.621 42.5,154.5C 41.4154,152.413 39.7488,151.08 37.5,150.5C 36.8333,150.167 36.1667,149.833 35.5,149.5C 35.5,148.833 35.5,148.167 35.5,147.5C 37.9118,147.306 38.9118,145.973 38.5,143.5 Z"/></g>
<g><path style="opacity:0.878" fill="#72a4c4" d="M 59.5,154.5 C 63.7706,157.101 67.4372,160.434 70.5,164.5C 66.2294,161.899 62.5628,158.566 59.5,154.5 Z"/></g>
<g><path style="opacity:1" fill="#af2e32" d="M 157.5,140.5 C 152.608,148.01 146.608,154.344 139.5,159.5C 138.957,159.44 138.624,159.107 138.5,158.5C 139.524,157.148 140.524,155.815 141.5,154.5C 146.45,149.364 151.783,144.698 157.5,140.5 Z"/></g>
<g><path style="opacity:0.22" fill="#dda3a3" d="M 52.5,156.5 C 52.0269,157.906 51.0269,158.573 49.5,158.5C 49.9731,157.094 50.9731,156.427 52.5,156.5 Z"/></g>
<g><path style="opacity:0.635" fill="#c26c6e" d="M 141.5,154.5 C 140.524,155.815 139.524,157.148 138.5,158.5C 138.624,159.107 138.957,159.44 139.5,159.5C 139.5,160.167 139.833,160.5 140.5,160.5C 141.167,161.5 141.833,162.5 142.5,163.5C 140.246,162.585 138.246,161.252 136.5,159.5C 137.167,156.833 138.833,155.167 141.5,154.5 Z"/></g>
<g><path style="opacity:0.22" fill="#dda0a0" d="M 151.5,160.5 C 151.027,161.906 150.027,162.573 148.5,162.5C 148.973,161.094 149.973,160.427 151.5,160.5 Z"/></g>
<g><path style="opacity:0.918" fill="#6ba1c2" d="M 70.5,164.5 C 71.609,164.557 72.609,164.89 73.5,165.5C 78.1251,169.824 82.7918,174.157 87.5,178.5C 90.8333,182.167 94.1667,185.833 97.5,189.5C 88.1935,181.528 79.1935,173.195 70.5,164.5 Z"/></g>
</svg>
