<?xml version="1.0" encoding="UTF-8"?>
<!-- Generator: visioncortex VTracer 0.6.3 -->
<svg version="1.1" xmlns="http://www.w3.org/2000/svg" width="300" height="300">
<path d="M0 0 C2.59 -0 5.18 -0.04 7.77 -0.08 C43.63 -0.32 79.32 14.63 105.12 39.37 C106.47 40.5 107.83 41.63 109.19 42.75 C114.15 47.08 118.11 52.17 122.12 57.37 C122.79 58.23 123.46 59.08 124.16 59.96 C137.54 77.62 146.15 97.86 151.12 119.37 C151.31 120.13 151.5 120.89 151.69 121.67 C153.53 130.13 153.5 138.63 153.49 147.25 C153.5 149.84 153.54 152.43 153.57 155.02 C153.82 190.87 138.87 226.56 114.12 252.37 C112.99 253.72 111.87 255.07 110.75 256.43 C106.42 261.39 101.32 265.36 96.12 269.37 C95.27 270.04 94.41 270.71 93.53 271.4 C75.88 284.78 55.63 293.39 34.12 298.37 C33.37 298.56 32.61 298.74 31.82 298.94 C23.36 300.77 14.87 300.74 6.25 300.74 C3.66 300.75 1.07 300.78 -1.52 300.82 C-29.77 301.01 -58.75 291.65 -81.88 275.37 C-83.3 274.37 -83.3 274.37 -84.75 273.35 C-115.84 250.82 -136.25 218.66 -144.88 181.37 C-145.06 180.61 -145.25 179.85 -145.44 179.07 C-147.28 170.61 -147.25 162.12 -147.25 153.49 C-147.25 150.9 -147.29 148.31 -147.33 145.72 C-147.57 109.87 -132.62 74.18 -107.88 48.37 C-106.75 47.02 -105.62 45.67 -104.5 44.31 C-100.17 39.35 -95.07 35.39 -89.88 31.37 C-89.02 30.7 -88.17 30.03 -87.29 29.34 C-69.63 15.96 -49.38 7.35 -27.88 2.37 C-27.12 2.18 -26.36 2 -25.58 1.8 C-17.11 -0.03 -8.62 -0 0 0 Z " fill="#FDFDFE" transform="translate(146.8759765625,-0.37060546875)"/>
<path d="M0 0 C-2.49 5.67 -4.98 11.35 -7.47 17.02 C-8.32 18.95 -9.16 20.88 -10.01 22.8 C-11.23 25.59 -12.45 28.37 -13.67 31.15 C-14.04 32 -14.42 32.85 -14.8 33.73 C-17.19 39.16 -19.59 44.58 -22 50 C-25.26 46.98 -27.69 43.8 -30 40 C-30 39.34 -30 38.68 -30 38 C-34.27 42.21 -38.39 46.56 -42.5 50.94 C-43.48 51.97 -43.48 51.97 -44.47 53.03 C-48.12 56.92 -51.63 60.86 -55 65 C-59.75 64.13 -59.75 64.13 -62 63 C-61.96 64.19 -61.92 65.37 -61.87 66.59 C-61.73 71 -61.64 75.41 -61.56 79.82 C-61.52 81.72 -61.47 83.63 -61.4 85.53 C-61.3 88.28 -61.25 91.02 -61.22 93.76 C-61.18 94.61 -61.14 95.46 -61.09 96.33 C-61.09 98.8 -61.18 100.67 -62 103 C-64.41 105.27 -67.03 106.59 -70 108 C-71.27 108.76 -72.55 109.53 -73.81 110.31 C-77 112 -77 112 -80 112 C-80.33 100.78 -80.66 89.56 -81 78 C-87.44 75.03 -87.44 75.03 -94 72 C-94 90.15 -94 108.3 -94 127 C-108 132 -108 132 -111 132 C-111 120.78 -111 109.56 -111 98 C-114.3 97.01 -117.6 96.02 -121 95 C-122.65 94.34 -124.3 93.68 -126 93 C-126 107.85 -126 122.7 -126 138 C-141 141 -141 141 -144 141 C-144.5 125.66 -144.5 125.66 -145 110 C-149.29 108.35 -153.58 106.7 -158 105 C-158 116.88 -158 128.76 -158 141 C-171 141 -171 141 -175 139 C-175 123.49 -175 107.98 -175 92 C-154.75 92 -154.75 92 -145 97 C-144.67 89.74 -144.34 82.48 -144 75 C-138.06 75 -132.12 75 -126 75 C-126 76.65 -126 78.3 -126 80 C-125.42 80.18 -124.84 80.36 -124.24 80.55 C-123.46 80.8 -122.68 81.05 -121.88 81.31 C-121.11 81.56 -120.34 81.8 -119.55 82.05 C-116.61 83.14 -113.81 84.6 -111 86 C-111 75.77 -111 65.54 -111 55 C-105.39 55 -99.78 55 -94 55 C-94 56.65 -94 58.3 -94 60 C-93.41 60.19 -92.82 60.39 -92.21 60.59 C-91.42 60.85 -90.63 61.11 -89.81 61.38 C-89.04 61.63 -88.26 61.89 -87.46 62.15 C-84.94 63.02 -82.47 64.01 -80 65 C-80 58.4 -80 51.8 -80 45 C-74.06 45 -68.12 45 -62 45 C-61.5 47.47 -61.5 47.47 -61 50 C-59.51 50.5 -59.51 50.5 -58 51 C-48.48 41.96 -48.48 41.96 -40 32 C-40 31.34 -40 30.68 -40 30 C-44.62 27.36 -49.24 24.72 -54 22 C-51.35 19.35 -50.27 18.48 -47.01 17.15 C-46.21 16.82 -45.41 16.49 -44.59 16.15 C-43.73 15.8 -42.87 15.45 -41.98 15.09 C-41.1 14.73 -40.21 14.36 -39.29 13.98 C-36.45 12.82 -33.6 11.66 -30.75 10.5 C-28.85 9.72 -26.95 8.94 -25.04 8.16 C-22.35 7.06 -19.66 5.95 -16.97 4.85 C-16.16 4.52 -15.35 4.19 -14.51 3.85 C-13.74 3.54 -12.98 3.23 -12.18 2.91 C-10.76 2.32 -9.35 1.7 -7.96 1.06 C-3.3 -1.1 -3.3 -1.1 0 0 Z " fill="#2A3E4D" transform="translate(256,58)"/>
<path d="M0 0 C0 0.99 0 1.98 0 3 C-1.58 3.87 -3.16 4.72 -4.75 5.56 C-6.07 6.28 -6.07 6.28 -7.42 7 C-12.82 9.09 -19 5.22 -24.19 3.26 C-33.92 -0.28 -43.49 -1.37 -53.81 -1.31 C-55.39 -1.3 -55.39 -1.3 -57 -1.3 C-80.32 -0.93 -101.49 8.52 -118 25 C-118.76 25.75 -119.52 26.5 -120.3 27.27 C-136.18 43.83 -144.42 65.44 -144.31 88.19 C-144.31 89.38 -144.31 90.58 -144.31 91.81 C-144.21 100.31 -143.29 107.81 -141 116 C-140.64 118 -140.3 120 -140 122 C-147.84 117.47 -154.24 112.27 -157.18 103.46 C-158.41 98.02 -158.22 92.55 -158.12 87 C-158.12 85.94 -158.11 84.88 -158.1 83.79 C-158.07 81.19 -158.04 78.6 -158 76 C-164.32 83.76 -165.64 89.11 -165.41 99.14 C-164.21 110.5 -158.3 118.82 -149.65 125.93 C-136.04 135.98 -121.18 139.59 -104.44 139.44 C-103.22 139.43 -102 139.42 -100.74 139.41 C-90.12 139.22 -80.23 137.82 -70 135 C-69.22 134.79 -68.44 134.57 -67.63 134.35 C-41.72 127.05 -16.86 115.5 6.43 102.12 C9.89 100.14 13.23 98.36 17 97 C-13.19 129.21 -71.08 153.9 -114.68 155.35 C-131.53 155.55 -148.73 151.45 -161.19 139.5 C-171.66 127.79 -174.97 114.93 -174.38 99.4 C-173.76 90.26 -170.13 84.53 -164.1 77.81 C-162 76 -162 76 -159.34 75.14 C-156.7 74.19 -156.7 74.19 -156.03 71.2 C-155.86 70.04 -155.68 68.88 -155.5 67.69 C-152.37 50.71 -144.38 34.93 -133 22 C-132.34 21.19 -131.67 20.39 -130.99 19.55 C-98.41 -18.87 -42.39 -24.81 0 0 Z " fill="#2C404F" transform="translate(204,68)"/>
<path d="M0 0 C4.54 1.51 5.89 4.86 8 9 C12.37 20.37 9.39 31.02 4.79 41.86 C1.76 47.94 -2.24 52.71 -6.9 57.59 C-11.17 62.07 -14.55 66.88 -18 72 C-37.44 100.12 -67 120.05 -100.5 127.31 C-109.32 128.74 -118.07 129.18 -127 129.19 C-128.04 129.2 -129.07 129.21 -130.14 129.22 C-131.12 129.23 -132.11 129.23 -133.12 129.23 C-134.01 129.23 -134.9 129.24 -135.82 129.24 C-138 129 -138 129 -140 127 C-138.9 126.89 -138.9 126.89 -137.78 126.77 C-98.99 122.06 -61.71 106.91 -34 79 C-32.98 77.68 -31.98 76.35 -31 75 C-45.25 81.37 -59.28 88.05 -73.12 95.25 C-73.79 95.6 -74.45 95.94 -75.14 96.3 C-78.32 97.95 -81.5 99.61 -84.68 101.27 C-98.97 108.71 -113.1 115.75 -128.62 120.25 C-129.47 120.5 -130.32 120.74 -131.19 121 C-153.92 127.33 -180.78 128.62 -202.25 117.56 C-206.53 115.05 -210.39 112.41 -214 109 C-210.26 109 -207.63 110.13 -204.12 111.44 C-184.48 118.76 -161.68 116.09 -142 110 C-140.73 109.62 -140.73 109.62 -139.43 109.23 C-123.33 104.27 -108.57 96.4 -93.62 88.78 C-81.38 82.55 -69.14 76.63 -56.38 71.56 C-55.72 71.3 -55.07 71.04 -54.39 70.77 C-48.45 68.42 -42.47 66.16 -36.46 63.98 C-19.45 57.77 -6.2 47.6 2 31 C5.45 22.55 6.44 15.15 3.06 6.56 C2.09 4.34 1.08 2.17 0 0 Z " fill="#2C404F" transform="translate(265,116)"/>
<path d="M0 0 C1.22 3.65 0.37 4.94 -1.25 8.29 C-1.77 9.32 -1.77 9.32 -2.31 10.38 C-2.67 11.09 -3.03 11.8 -3.41 12.53 C-13.59 31.91 -29.78 46.37 -49.38 55.81 C-50.09 56.16 -50.81 56.51 -51.55 56.87 C-59.1 60.35 -67.05 62.62 -75 65 C-73.97 65.02 -72.94 65.04 -71.87 65.06 C-67.96 65.14 -64.04 65.23 -60.13 65.32 C-58.45 65.36 -56.77 65.39 -55.09 65.42 C-43.61 65.64 -32.38 66.44 -21 68 C-24.88 71.88 -30.83 71.48 -36.06 72 C-36.84 72.08 -37.62 72.17 -38.42 72.25 C-57.84 74.2 -77.31 74.22 -96.81 74.24 C-99.99 74.24 -103.18 74.26 -106.37 74.28 C-123.44 74.4 -140.38 74.17 -157.4 72.61 C-158.09 72.55 -158.79 72.48 -159.51 72.42 C-166.26 71.8 -172.53 70.99 -179 69 C-179 68.67 -179 68.34 -179 68 C-167.13 66.39 -155.41 65.62 -143.44 65.38 C-141.83 65.34 -140.22 65.3 -138.61 65.26 C-134.74 65.16 -130.87 65.08 -127 65 C-128.07 64.68 -129.14 64.37 -130.24 64.04 C-144.22 59.83 -144.22 59.83 -150.5 56.19 C-152.09 55.28 -152.09 55.28 -153.72 54.36 C-154.47 53.91 -155.22 53.46 -156 53 C-156 52.67 -156 52.34 -156 52 C-153.08 52.14 -150.17 52.29 -147.25 52.44 C-146.44 52.48 -145.64 52.52 -144.81 52.56 C-140.37 52.78 -135.96 53.1 -131.54 53.52 C-123.89 54.18 -116.25 54.19 -108.57 54.19 C-106.07 54.19 -103.57 54.21 -101.06 54.22 C-66.63 54.35 -37.83 40.66 -13.49 16.5 C-8.5 11.35 -3.98 5.97 0 0 Z " fill="#2D4150" transform="translate(249,195)"/>
<path d="M0 0 C0.33 0 0.66 0 1 0 C1.99 22.67 -4.94 38.4 -20 55 C-20.65 55.73 -21.29 56.46 -21.96 57.21 C-34.83 70.95 -52.6 80.6 -69.38 88.69 C-70.09 89.04 -70.81 89.39 -71.56 89.75 C-76.64 92.12 -76.64 92.12 -80 91 C-79.07 90.51 -78.13 90.03 -77.17 89.52 C-61.14 80.96 -46.55 70.29 -33.59 57.55 C-31.9 55.9 -30.17 54.28 -28.45 52.67 C-13.05 38.06 -2.63 21.44 0 0 Z " fill="#354958" transform="translate(260,86)"/>
<path d="M0 0 C0 0.66 0 1.32 0 2 C-0.76 2.17 -1.52 2.34 -2.3 2.52 C-3.79 2.88 -3.79 2.88 -5.31 3.25 C-6.3 3.48 -7.28 3.71 -8.3 3.95 C-11.39 5.15 -12.13 6.36 -14 9 C-16.33 9 -18.67 9 -21 9 C-23.45 9.9 -25.74 10.97 -28.08 12.12 C-30 13 -30 13 -32 13 C-32.14 13.64 -32.29 14.28 -32.44 14.94 C-33 17 -33 17 -34 18 C-35.01 18.06 -36.02 18.12 -37.06 18.19 C-41.97 18.84 -45.61 21.49 -49 25 C-49.31 26.07 -49.62 27.14 -49.94 28.25 C-50.29 29.16 -50.64 30.06 -51 31 C-53.94 32.14 -56.88 32.63 -60 33 C-59.34 32.01 -58.68 31.02 -58 30 C-57.77 28.99 -57.55 27.98 -57.31 26.94 C-56.88 25.97 -56.45 25 -56 24 C-52.88 23 -52.88 23 -51.01 22.61 C-46.07 21.11 -41.88 17.55 -39.38 13.12 C-38.92 12.42 -38.47 11.72 -38 11 C-36 11 -34 11 -32 11 C-29.3 9.84 -26.75 8.5 -24.17 7.09 C-22 6 -22 6 -20 6 C-19.75 5.36 -19.5 4.72 -19.25 4.06 C-18 2 -18 2 -16.12 1.19 C-14 1 -14 1 -12.19 1.56 C-8 2.4 -4.27 0 0 0 Z " fill="#374B59" transform="translate(129,39)"/>
<path d="M0 0 C2 2 2 2 3.19 5.38 C4.97 9.82 7.78 11.01 12 13 C11 15 11 15 8.19 16.12 C3.95 18.62 2.79 21.56 1 26 C-1 23 -1 23 -2.19 20.56 C-4.65 17.09 -7.23 15.92 -11 14 C-9.17 12.78 -7.34 11.57 -5.5 10.38 C-2.15 7.19 -1.39 4.38 0 0 Z " fill="#334655" transform="translate(148,23)"/>
<path d="M0 0 C1.37 14.93 1.37 14.93 -1.93 19.91 C-7.71 25 -7.71 25 -11 25 C-12.53 12.25 -12.53 12.25 -8.81 6.78 C-1.95 0 -1.95 0 0 0 Z " fill="#304453" transform="translate(251,141)"/>
<path d="M0 0 C1.21 0.23 1.21 0.23 2.45 0.47 C3.52 0.67 4.59 0.86 5.69 1.06 C7.27 1.36 7.27 1.36 8.89 1.66 C11.95 2.16 11.95 2.16 14.75 1.42 C15.49 1.28 16.24 1.14 17 1 C18.71 2.62 20.37 4.3 22 6 C26.72 9.07 30.32 10.27 36 10 C36.66 10.66 37.32 11.32 38 12 C37.62 14.62 37.62 14.62 37 17 C35.19 17.62 35.19 17.62 33 18 C32.01 17.34 31.02 16.68 30 16 C30 14.68 30 13.36 30 12 C25.66 10.41 21.57 9.59 17 9 C14.69 8.62 14.69 8.62 13 8 C12.34 7.01 11.68 6.02 11 5 C8.36 3.98 8.36 3.98 5.38 3.31 C4.37 3.06 3.37 2.81 2.34 2.55 C1.57 2.37 0.79 2.19 0 2 C0 1.34 0 0.68 0 0 Z " fill="#405461" transform="translate(168,39)"/>
<path d="M0 0 C2.62 0.38 2.62 0.38 5 1 C5 2.65 5 4.3 5 6 C4.4 6.21 3.81 6.42 3.2 6.63 C-1.52 9.57 -3.18 15.97 -5 21 C-5.61 24.17 -6.03 27.32 -6.43 30.52 C-7 33 -7 33 -9.62 35.75 C-10.41 36.16 -11.19 36.58 -12 37 C-12 34.36 -12 31.72 -12 29 C-11.01 28.67 -10.02 28.34 -9 28 C-8.9 27.17 -8.8 26.33 -8.69 25.47 C-7.77 20.86 -5.95 16.76 -4.08 12.48 C-2.53 8.78 -1.89 5.99 -2 2 C-1.34 1.34 -0.68 0.68 0 0 Z " fill="#556975" transform="translate(51,89)"/>
<path d="M0 0 C0.66 0.99 1.32 1.98 2 3 C3.65 4.69 5.31 6.35 7 8 C7.66 8.66 8.32 9.32 9 10 C8.07 10.58 7.14 11.16 6.19 11.75 C3.4 13.72 1.81 15.18 0 18 C-1.11 16.61 -1.11 16.61 -2.25 15.19 C-4.29 12.73 -6.32 10.78 -9 9 C-8.07 8.63 -7.14 8.26 -6.19 7.88 C-2.47 5.69 -1.57 3.93 0 0 Z " fill="#344857" transform="translate(149,76)"/>
<path d="M0 0 C4.54 1.51 5.89 4.86 8 9 C10.69 15.99 10.87 23.77 9 31 C8.67 30.34 8.34 29.68 8 29 C6.35 29.33 4.7 29.66 3 30 C3.14 29.45 3.29 28.91 3.44 28.35 C6.13 17.42 5.04 10.08 0 0 Z " fill="#3E515F" transform="translate(265,116)"/>
<path d="M0 0 C0.33 0 0.66 0 1 0 C1.33 8.25 1.66 16.5 2 25 C2.99 25 3.98 25 5 25 C5 25.99 5 26.98 5 28 C6.65 28.33 8.3 28.66 10 29 C6.41 32.18 4.92 33.02 0 34 C0 22.78 0 11.56 0 0 Z " fill="#566977" transform="translate(176,136)"/>
<path d="M0 0 C0.33 0 0.66 0 1 0 C1.03 3.44 1.05 6.87 1.06 10.31 C1.07 11.29 1.08 12.27 1.09 13.27 C1.09 14.21 1.09 15.15 1.1 16.11 C1.1 16.98 1.11 17.84 1.11 18.73 C1 21 1 21 0 24 C-2.31 24 -4.62 24 -7 24 C-7 23.34 -7 22.68 -7 22 C-7.99 22 -8.98 22 -10 22 C-9.67 20.35 -9.34 18.7 -9 17 C-6.03 17.99 -3.06 18.98 0 20 C0 13.4 0 6.8 0 0 Z " fill="#455866" transform="translate(176,103)"/>
<path d="M0 0 C-2.57 2.57 -3.59 2.26 -7.16 2.27 C-8.69 2.27 -8.69 2.27 -10.25 2.27 C-11.33 2.27 -12.4 2.26 -13.5 2.25 C-15.11 2.26 -15.11 2.26 -16.75 2.27 C-17.77 2.27 -18.79 2.27 -19.84 2.27 C-20.78 2.26 -21.72 2.26 -22.69 2.26 C-25 2 -25 2 -27 0 C-17.83 -1.18 -9.16 -1.36 0 0 Z " fill="#495D6B" transform="translate(152,243)"/>
<path d="M0 0 C2.62 0.38 2.62 0.38 5 1 C5.62 2.88 5.62 2.88 6 5 C4 7 4 7 1.38 7.12 C0.59 7.08 -0.19 7.04 -1 7 C-1.66 8.32 -2.32 9.64 -3 11 C-3.66 11 -4.32 11 -5 11 C-4.55 9.54 -4.09 8.08 -3.62 6.62 C-3.37 5.81 -3.11 5 -2.85 4.16 C-2 2 -2 2 0 0 Z " fill="#3E525F" transform="translate(62,75)"/>
<path d="M0 0 C0.33 0.66 0.66 1.32 1 2 C-0.98 2 -2.96 2 -5 2 C-5 2.66 -5 3.32 -5 4 C-12 3.37 -19 2.71 -26 2 C-26 1.67 -26 1.34 -26 1 C-22.79 0.83 -19.58 0.67 -16.38 0.5 C-15.47 0.45 -14.57 0.4 -13.64 0.36 C-9.09 0.12 -4.56 -0.06 0 0 Z " fill="#455866" transform="translate(120,207)"/>
<path d="M0 0 C0.33 0 0.66 0 1 0 C1.2 4.46 1.38 8.92 1.56 13.38 C1.62 14.65 1.67 15.92 1.73 17.23 C1.78 18.44 1.83 19.65 1.88 20.9 C1.93 22.02 1.97 23.14 2.02 24.29 C2 27 2 27 1 29 C0.34 29 -0.32 29 -1 29 C-1.19 27.02 -1.38 25.04 -1.56 23.06 C-1.67 21.96 -1.77 20.86 -1.88 19.72 C-1.92 18.82 -1.96 17.93 -2 17 C-1.67 16.67 -1.34 16.34 -1 16 C-0.76 13.31 -0.58 10.64 -0.44 7.94 C-0.39 7.18 -0.35 6.42 -0.31 5.64 C-0.2 3.76 -0.1 1.88 0 0 Z " fill="#4C606F" transform="translate(58,149)"/>
<path d="M0 0 C0.33 0 0.66 0 1 0 C1.53 1.77 2.05 3.54 2.56 5.31 C2.85 6.3 3.14 7.28 3.44 8.3 C4 11 4 11 3 14 C0.03 11.69 -2.94 9.38 -6 7 C-4.68 6.01 -3.36 5.02 -2 4 C-0.75 1.92 -0.75 1.92 0 0 Z " fill="#3D515F" transform="translate(60,176)"/>
<path d="M0 0 C2.06 -0.03 4.12 -0.05 6.19 -0.06 C7.34 -0.07 8.48 -0.09 9.67 -0.1 C12.59 -0.01 15.16 0.32 18 1 C18 1.33 18 1.66 18 2 C9.34 3.26 0.73 3.09 -8 3 C-8 2.67 -8 2.34 -8 2 C-5.36 2 -2.72 2 0 2 C0 1.34 0 0.68 0 0 Z " fill="#3D515F" transform="translate(87,220)"/>
<path d="M0 0 C9.57 0 19.14 0 29 0 C29 0.33 29 0.66 29 1 C19.76 1 10.52 1 1 1 C0.67 2.65 0.34 4.3 0 6 C-0.66 6 -1.32 6 -2 6 C-2 5.34 -2 4.68 -2 4 C-2.99 3.67 -3.98 3.34 -5 3 C-4.34 2.34 -3.68 1.68 -3 1 C-2.01 1.33 -1.02 1.66 0 2 C0 1.34 0 0.68 0 0 Z " fill="#4A5D6B" transform="translate(125,250)"/>
<path d="M0 0 C1.56 1.75 1.56 1.75 3 4 C2.79 7.35 1.2 9.54 -1 12 C-1.66 12 -2.32 12 -3 12 C-3.88 9.53 -4.13 8.36 -3.22 5.86 C-2.84 5.16 -2.46 4.47 -2.06 3.75 C-1.68 3.04 -1.3 2.34 -0.91 1.61 C-0.61 1.08 -0.31 0.55 0 0 Z " fill="#394C5B" transform="translate(240,109)"/>
<path d="M0 0 C1.21 0.03 1.21 0.03 2.44 0.06 C3.06 2.44 3.06 2.44 3.44 5.06 C2.78 5.72 2.12 6.38 1.44 7.06 C-1.19 6.69 -1.19 6.69 -3.56 6.06 C-3.61 4.4 -3.6 2.73 -3.56 1.06 C-2.56 0.06 -2.56 0.06 0 0 Z " fill="#2C4050" transform="translate(93.5625,49.9375)"/>
<path d="M0 0 C1.68 0.29 3.34 0.62 5 1 C5 2.65 5 4.3 5 6 C2.62 6.62 2.62 6.62 0 7 C-0.66 6.34 -1.32 5.68 -2 5 C-1.46 1.46 -1.46 1.46 0 0 Z " fill="#314553" transform="translate(51,89)"/>
<path d="M0 0 C-2.14 2.33 -4.19 3.82 -7 5.25 C-8.02 5.78 -8.02 5.78 -9.06 6.33 C-11 7 -11 7 -14 6 C-13.34 6 -12.68 6 -12 6 C-12 5.01 -12 4.02 -12 3 C-11.01 3 -10.02 3 -9 3 C-9 2.34 -9 1.68 -9 1 C-3.38 -1.12 -3.38 -1.12 0 0 Z " fill="#3F5361" transform="translate(205,69)"/>
<path d="M0 0 C-0.33 1.65 -0.66 3.3 -1 5 C-4.75 6.12 -4.75 6.12 -7 5 C-7 3.35 -7 1.7 -7 0 C-3.99 -0.93 -3.13 -1.04 0 0 Z " fill="#293C4B" transform="translate(206,51)"/>
<path d="M0 0 C2 3 2 3 2 7 C-0.5 9.25 -0.5 9.25 -3 11 C-3 8.36 -3 5.72 -3 3 C-2.01 2.67 -1.02 2.34 0 2 C0 1.34 0 0.68 0 0 Z " fill="#354957" transform="translate(42,115)"/>
<path d="M0 0 C0.33 0 0.66 0 1 0 C1 5.61 1 11.22 1 17 C0.34 16.34 -0.32 15.68 -1 15 C-1.99 15.5 -1.99 15.5 -3 16 C-2.01 10.72 -1.02 5.44 0 0 Z " fill="#4F6370" transform="translate(260,86)"/>
<path d="M0 0 C0.99 0.4 0.99 0.4 2 0.81 C5.65 2.26 9.32 3.63 13 5 C12.01 6.49 12.01 6.49 11 8 C6.4 6.51 3.53 4.2 0 1 C0 0.67 0 0.34 0 0 Z " fill="#465966" transform="translate(51,224)"/>
<path d="M0 0 C0 3 0 3 -1.88 4.94 C-2.58 5.62 -3.28 6.3 -4 7 C-4.46 8.08 -4.46 8.08 -4.94 9.19 C-6 11 -6 11 -8.62 11.75 C-9.41 11.83 -10.19 11.91 -11 12 C-7.49 7.82 -3.92 3.8 0 0 Z " fill="#425664" transform="translate(235,191)"/>
<path d="M0 0 C-2.12 2.12 -3.77 2.93 -6.5 4.12 C-7.29 4.48 -8.09 4.83 -8.91 5.2 C-11 6 -11 6 -13 6 C-13 5.34 -13 4.68 -13 4 C-11.4 3.13 -9.8 2.28 -8.19 1.44 C-7.29 0.96 -6.4 0.49 -5.48 -0 C-3 -1 -3 -1 0 0 Z " fill="#516571" transform="translate(110,46)"/>
<path d="M0 0 C0.66 0.33 1.32 0.66 2 1 C-2.75 6.75 -2.75 6.75 -5 9 C-5.99 8.34 -6.98 7.68 -8 7 C-5.36 4.69 -2.72 2.38 0 0 Z " fill="#546874" transform="translate(45,142)"/>
<path d="M0 0 C0.66 0.99 1.32 1.98 2 3 C0.81 4.56 0.81 4.56 -1 6 C-3.69 5.69 -3.69 5.69 -6 5 C-2.25 1.12 -2.25 1.12 0 0 Z " fill="#3B4E5C" transform="translate(202,117)"/>
<path d="M0 0 C1.39 4.18 -0.18 6.13 -2 10 C-2.99 9.01 -3.98 8.02 -5 7 C-3.35 4.69 -1.7 2.38 0 0 Z " fill="#4D616D" transform="translate(249,195)"/>
<path d="M0 0 C4.09 1.36 4.99 3.27 7 7 C6.75 9.88 6.75 9.88 6 12 C4 8 2 4 0 0 Z " fill="#60747F" transform="translate(265,116)"/>
<path d="M0 0 C1.19 1.62 1.19 1.62 2 4 C0.62 7.25 0.62 7.25 -1 10 C-1.66 9.67 -2.32 9.34 -3 9 C-3 8.34 -3 7.68 -3 7 C-2.34 7 -1.68 7 -1 7 C-1.21 6.4 -1.41 5.8 -1.62 5.19 C-2 3 -2 3 0 0 Z " fill="#3A4D5C" transform="translate(235,98)"/>
<path d="M0 0 C0.66 1.32 1.32 2.64 2 4 C-0.88 6.24 -3.85 8.16 -7 10 C-7 9.01 -7 8.02 -7 7 C-5.01 5.65 -3.01 4.31 -1 3 C-0.67 2.01 -0.34 1.02 0 0 Z " fill="#516572" transform="translate(89,52)"/>
<path d="M0 0 C-3.96 0 -7.92 0 -12 0 C-7.86 -4.14 -4.64 -3.09 0 0 Z " fill="#E2ECEF" transform="translate(184,261)"/>
<path d="M0 0 C0.99 0.99 1.98 1.98 3 3 C2.34 4.32 1.68 5.64 1 7 C-0.32 6.34 -1.64 5.68 -3 5 C-3 3 -3 3 -1.5 1.38 C-1 0.92 -0.51 0.47 0 0 Z " fill="#3B4F5C" transform="translate(261,128)"/>
<path d="M0 0 C0.66 0.33 1.32 0.66 2 1 C2 1.99 2 2.98 2 4 C1.26 4.29 0.52 4.58 -0.25 4.88 C-2.57 5.82 -4.77 6.87 -7 8 C-6.02 6.85 -5.04 5.71 -4.06 4.56 C-3.52 3.92 -2.97 3.29 -2.41 2.63 C-1.63 1.73 -0.84 0.84 0 0 Z " fill="#3C505E" transform="translate(81,79)"/>
<path d="M0 0 C0.33 1.32 0.66 2.64 1 4 C-1.97 3.67 -4.94 3.34 -8 3 C-2 0 -2 0 0 0 Z " fill="#405462" transform="translate(170,64)"/>
<path d="M0 0 C4.42 1.35 6.34 3.26 9 7 C4.58 5.65 2.66 3.74 0 0 Z " fill="#495D69" transform="translate(209,57)"/>
<path d="M0 0 C0.33 1.32 0.66 2.64 1 4 C-0.65 4.66 -2.3 5.32 -4 6 C-4.66 5.34 -5.32 4.68 -6 4 C-4.68 4 -3.36 4 -2 4 C-1.67 3.01 -1.34 2.02 -1 1 C-0.67 0.67 -0.34 0.34 0 0 Z " fill="#435663" transform="translate(205,51)"/>
</svg>
