<?xml version="1.0" encoding="UTF-8"?>
<!-- Generator: visioncortex VTracer 0.6.3 -->
<svg version="1.1" xmlns="http://www.w3.org/2000/svg" width="1080" height="1080">
<path d="M0 0 C3.81 0.01 7.62 0 11.43 -0.01 C32.71 -0.03 53.96 1.01 75.06 3.89 C76.88 4.13 76.88 4.13 78.73 4.39 C173.91 18.06 265.74 56.38 344.17 119.93 C345.66 121.14 347.16 122.33 348.66 123.52 C356.14 129.49 363.05 136 370 142.56 C372.16 144.58 374.34 146.57 376.53 148.55 C385.1 156.32 393.48 164.33 400.98 173.15 C402.86 175.32 404.8 177.43 406.75 179.53 C412.37 185.58 417.65 191.82 422.81 198.26 C423.73 199.39 424.66 200.52 425.58 201.65 C459.03 242.74 485.73 289.39 505.65 338.42 C506.65 340.87 507.67 343.32 508.7 345.77 C524.9 385.12 534.42 427.89 540.12 469.95 C540.34 471.57 540.34 471.57 540.57 473.23 C541.04 476.9 541.44 480.58 541.81 484.26 C541.9 485.11 541.98 485.96 542.07 486.83 C543.8 504.46 544.17 521.99 544.12 539.7 C544.12 541.07 544.12 542.45 544.12 543.82 C544.08 564.45 543.52 584.79 540.81 605.26 C540.64 606.59 540.48 607.93 540.31 609.26 C533.77 660.56 519.59 710.92 498.81 758.26 C498.43 759.14 498.05 760.01 497.66 760.91 C492.28 773.35 486.32 785.38 479.81 797.26 C479.33 798.14 478.85 799.02 478.36 799.93 C466.9 820.89 454.38 841.3 439.81 860.26 C438.98 861.36 438.14 862.46 437.3 863.56 C435.25 866.26 433.18 868.94 431.09 871.61 C429.75 873.34 428.42 875.07 427.09 876.8 C421.99 883.4 416.74 889.71 411.06 895.83 C409.18 897.86 407.36 899.91 405.56 902.01 C395.14 913.99 384.21 925.9 372.13 936.23 C369.64 938.41 367.23 940.66 364.82 942.92 C358.36 948.99 351.75 954.74 344.81 960.26 C343.67 961.19 342.53 962.12 341.39 963.06 C332.17 970.58 322.63 977.54 312.81 984.26 C312.08 984.76 311.35 985.26 310.6 985.78 C293.42 997.48 275.78 1008.05 257.45 1017.84 C255.04 1019.14 252.64 1020.46 250.25 1021.78 C202.29 1048.08 148.43 1063.8 94.81 1073.26 C93.14 1073.56 93.14 1073.56 91.43 1073.86 C63.72 1078.65 36.04 1080.79 7.96 1080.65 C4.5 1080.63 1.05 1080.64 -2.41 1080.66 C-88.72 1081.03 -175.65 1058 -333.19 963.26 C-334.17 962.48 -335.15 961.69 -336.16 960.88 C-341.45 956.6 -346.58 952.19 -351.61 947.6 C-353.71 945.7 -355.83 943.83 -357.97 941.98 C-362.26 938.23 -366.42 934.36 -370.56 930.45 C-371.68 929.4 -371.68 929.4 -372.81 928.33 C-380.25 921.29 -387.62 914.24 -394.29 906.44 C-396.2 904.25 -398.16 902.12 -400.14 899.99 C-405.74 893.94 -411.05 887.72 -416.19 881.26 C-416.6 880.75 -417.01 880.24 -417.44 879.71 C-438.96 852.94 -457.69 824.17 -473.8 793.85 C-475.08 791.46 -476.39 789.08 -477.7 786.71 C-490.34 763.68 -499.83 739.11 -508.19 714.26 C-508.55 713.2 -508.91 712.14 -509.28 711.05 C-520.23 678.52 -527.69 645.11 -532.5 611.14 C-532.65 610.11 -532.8 609.08 -532.95 608.03 C-535.91 585.68 -536.56 563.28 -536.5 540.76 C-536.5 539.39 -536.5 538.01 -536.5 536.64 C-536.46 516.04 -535.9 495.71 -533.19 475.26 C-533.02 473.93 -532.85 472.6 -532.68 471.26 C-528.67 439.71 -521.63 408.63 -512.19 378.26 C-511.67 376.59 -511.67 376.59 -511.14 374.88 C-502.47 347.28 -491.14 321.08 -478.19 295.26 C-477.66 294.21 -477.13 293.16 -476.59 292.07 C-466.44 271.95 -454.95 252.83 -442.19 234.26 C-441.69 233.54 -441.2 232.81 -440.69 232.07 C-434.01 222.35 -426.98 213.02 -419.51 203.89 C-417.65 201.6 -415.83 199.27 -414 196.95 C-410.67 192.78 -407.16 188.81 -403.56 184.88 C-401.63 182.75 -399.74 180.61 -397.86 178.44 C-394.3 174.37 -390.65 170.39 -386.94 166.45 C-386.29 165.76 -385.64 165.06 -384.97 164.35 C-377.72 156.67 -370.44 149.04 -362.39 142.19 C-360.11 140.2 -357.91 138.13 -355.71 136.06 C-349.09 129.84 -342.18 124.19 -334.98 118.66 C-333.18 117.25 -331.4 115.81 -329.64 114.36 C-320.6 106.95 -311.18 100.27 -301.46 93.78 C-299.36 92.37 -297.26 90.96 -295.17 89.53 C-227.51 43.67 -148.33 14.86 -67.44 3.89 C-66.38 3.74 -65.33 3.6 -64.25 3.45 C-42.9 0.8 -21.5 -0.07 0 0 Z " fill="#E9EAEC" transform="translate(536.1884765625,-0.2607421875)"/>
<path d="M0 0 C3.81 0.01 7.62 0 11.43 -0.01 C32.71 -0.03 53.96 1.01 75.06 3.89 C76.88 4.13 76.88 4.13 78.73 4.39 C173.91 18.06 265.74 56.38 344.17 119.93 C345.66 121.14 347.16 122.33 348.66 123.52 C356.14 129.49 363.05 136 370 142.56 C372.16 144.58 374.34 146.57 376.53 148.55 C385.1 156.32 393.48 164.33 400.98 173.15 C402.86 175.32 404.8 177.43 406.75 179.53 C412.37 185.58 417.65 191.82 422.81 198.26 C423.73 199.39 424.66 200.52 425.58 201.65 C459.03 242.74 485.73 289.39 505.65 338.42 C506.65 340.87 507.67 343.32 508.7 345.77 C524.9 385.12 534.42 427.89 540.12 469.95 C540.34 471.57 540.34 471.57 540.57 473.23 C541.04 476.9 541.44 480.58 541.81 484.26 C541.9 485.11 541.98 485.96 542.07 486.83 C543.8 504.46 544.17 521.99 544.12 539.7 C544.12 541.07 544.12 542.45 544.12 543.82 C544.08 564.45 543.52 584.79 540.81 605.26 C540.64 606.59 540.48 607.93 540.31 609.26 C533.77 660.56 519.59 710.92 498.81 758.26 C498.43 759.14 498.05 760.01 497.66 760.91 C492.28 773.35 486.32 785.38 479.81 797.26 C479.33 798.14 478.85 799.02 478.36 799.93 C466.9 820.89 454.38 841.3 439.81 860.26 C438.98 861.36 438.14 862.46 437.3 863.56 C435.25 866.26 433.18 868.94 431.09 871.61 C429.75 873.34 428.42 875.07 427.09 876.8 C421.99 883.4 416.74 889.71 411.06 895.83 C409.18 897.86 407.36 899.91 405.56 902.01 C395.14 913.99 384.21 925.9 372.13 936.23 C369.64 938.41 367.23 940.66 364.82 942.92 C358.36 948.99 351.75 954.74 344.81 960.26 C343.67 961.19 342.53 962.12 341.39 963.06 C332.17 970.58 322.63 977.54 312.81 984.26 C312.08 984.76 311.35 985.26 310.6 985.78 C293.42 997.48 275.78 1008.05 257.45 1017.84 C255.04 1019.14 252.64 1020.46 250.25 1021.78 C202.29 1048.08 148.43 1063.8 94.81 1073.26 C93.14 1073.56 93.14 1073.56 91.43 1073.86 C63.72 1078.65 36.04 1080.79 7.96 1080.65 C4.5 1080.63 1.05 1080.64 -2.41 1080.66 C-88.72 1081.03 -175.65 1058 -333.19 963.26 C-334.17 962.48 -335.15 961.69 -336.16 960.88 C-341.45 956.6 -346.58 952.19 -351.61 947.6 C-353.71 945.7 -355.83 943.83 -357.97 941.98 C-362.26 938.23 -366.42 934.36 -370.56 930.45 C-371.68 929.4 -371.68 929.4 -372.81 928.33 C-380.25 921.29 -387.62 914.24 -394.29 906.44 C-396.2 904.25 -398.16 902.12 -400.14 899.99 C-405.74 893.94 -411.05 887.72 -416.19 881.26 C-416.6 880.75 -417.01 880.24 -417.44 879.71 C-438.96 852.94 -457.69 824.17 -473.8 793.85 C-475.08 791.46 -476.39 789.08 -477.7 786.71 C-490.34 763.68 -499.83 739.11 -508.19 714.26 C-508.55 713.2 -508.91 712.14 -509.28 711.05 C-520.23 678.52 -527.69 645.11 -532.5 611.14 C-532.65 610.11 -532.8 609.08 -532.95 608.03 C-535.91 585.68 -536.56 563.28 -536.5 540.76 C-536.5 539.39 -536.5 538.01 -536.5 536.64 C-536.46 516.04 -535.9 495.71 -533.19 475.26 C-533.02 473.93 -532.85 472.6 -532.68 471.26 C-528.67 439.71 -521.63 408.63 -512.19 378.26 C-511.67 376.59 -511.67 376.59 -511.14 374.88 C-502.47 347.28 -491.14 321.08 -478.19 295.26 C-477.66 294.21 -477.13 293.16 -476.59 292.07 C-466.44 271.95 -454.95 252.83 -442.19 234.26 C-441.69 233.54 -441.2 232.81 -440.69 232.07 C-434.01 222.35 -426.98 213.02 -419.51 203.89 C-417.65 201.6 -415.83 199.27 -414 196.95 C-410.67 192.78 -407.16 188.81 -403.56 184.88 C-401.63 182.75 -399.74 180.61 -397.86 178.44 C-394.3 174.37 -390.65 170.39 -386.94 166.45 C-386.29 165.76 -385.64 165.06 -384.97 164.35 C-377.72 156.67 -370.44 149.04 -362.39 142.19 C-360.11 140.2 -357.91 138.13 -355.71 136.06 C-349.09 129.84 -342.18 124.19 -334.98 118.66 C-333.18 117.25 -331.4 115.81 -329.64 114.36 C-320.6 106.95 -311.18 100.27 -301.46 93.78 C-299.36 92.37 -297.26 90.96 -295.17 89.53 C-227.51 43.67 -148.33 14.86 -67.44 3.89 C-66.38 3.74 -65.33 3.6 -64.25 3.45 C-42.9 0.8 -21.5 -0.07 0 0 Z M-100.19 236.26 C-100.96 236.3 -101.73 236.34 -102.52 236.38 C-197.06 240.55 -197.06 240.55 -290.19 256.26 C-291.37 256.54 -291.37 256.54 -292.57 256.82 C-294.55 257.29 -296.53 257.78 -298.5 258.26 C-299.78 258.57 -301.05 258.88 -302.36 259.2 C-309.24 261.11 -315.58 263.78 -321.94 267.01 C-322.63 267.36 -323.32 267.71 -324.03 268.07 C-353.89 283.32 -374.94 306.68 -386.19 338.26 C-386.44 338.93 -386.69 339.61 -386.94 340.3 C-407.32 395.74 -405.4 456.98 -405.38 515.07 C-405.38 516.28 -405.38 517.49 -405.38 518.73 C-405.37 569.37 -404.57 619.79 -400.19 670.26 C-400.06 671.81 -399.92 673.35 -399.79 674.9 C-399.42 679.29 -399.03 683.68 -398.63 688.07 C-398.51 689.34 -398.4 690.61 -398.28 691.92 C-397.56 699.44 -396.51 706.83 -395.19 714.26 C-394.87 716.2 -394.54 718.14 -394.22 720.08 C-393.9 721.99 -393.58 723.91 -393.25 725.82 C-393.09 726.77 -392.94 727.72 -392.78 728.7 C-388.31 754.89 -379.32 782.36 -361.19 802.26 C-360.31 803.33 -360.31 803.33 -359.42 804.42 C-339.94 828.09 -307.85 837.89 -279.26 844.76 C-277.9 845.09 -276.54 845.42 -275.18 845.76 C-255.13 850.72 -234.56 853.22 -213.99 854.77 C-210 855.08 -206.02 855.5 -202.04 855.96 C-191.36 857.2 -180.67 858.04 -169.94 858.76 C-169.01 858.82 -168.08 858.89 -167.13 858.95 C-149.92 860.12 -132.69 860.94 -115.46 861.61 C-114.53 861.65 -113.6 861.69 -112.65 861.73 C-110.95 861.79 -109.25 861.86 -107.55 861.92 C-103.11 862.09 -98.69 862.38 -94.25 862.75 C-85.64 863.43 -77.02 863.62 -68.38 863.81 C-67.45 863.83 -66.52 863.85 -65.57 863.87 C-38.87 864.46 -12.16 864.45 14.55 864.45 C19.46 864.45 24.36 864.45 29.27 864.47 C64.23 864.55 99.1 864.09 134.03 862.39 C139.76 862.12 145.48 861.87 151.2 861.61 C158.05 861.3 164.9 860.96 171.75 860.61 C176.22 860.39 180.69 860.18 185.16 859.99 C205.03 859.14 224.82 857.48 244.62 855.64 C246.64 855.45 248.66 855.27 250.68 855.09 C265.25 853.77 279.7 852.13 294.13 849.72 C295.97 849.41 295.97 849.41 297.84 849.1 C307.39 847.45 316.58 845.16 325.81 842.26 C326.98 841.92 328.16 841.58 329.36 841.23 C347.43 835.95 363.71 827.8 377.81 815.26 C378.65 814.56 379.49 813.87 380.35 813.15 C395.03 800.68 405.34 783.27 411.81 765.26 C412.04 764.63 412.27 764 412.5 763.35 C419.84 742.61 423.64 721 426.56 699.26 C426.66 698.51 426.76 697.76 426.87 696.98 C429.41 677.79 431.1 658.61 432.19 639.28 C432.37 636.03 432.56 632.78 432.75 629.52 C432.88 627.37 433 625.21 433.13 623.06 C433.18 622.13 433.24 621.2 433.29 620.24 C433.48 616.92 433.65 613.59 433.81 610.26 C433.85 609.44 433.89 608.62 433.94 607.78 C434.72 591.79 434.97 575.82 434.98 559.81 C434.98 557.33 434.99 554.85 434.99 552.37 C435 547.2 435 542.03 435 536.87 C435 531.65 435 526.43 435.02 521.22 C435.12 481.34 434.13 441.93 429.81 402.26 C429.72 401.36 429.62 400.45 429.53 399.52 C424.99 357.09 410.77 313.31 377.89 284.58 C318.74 237.79 227.33 240.9 155.81 237.26 C154.67 237.2 153.53 237.14 152.35 237.08 C149.14 236.92 145.92 236.76 142.71 236.61 C141.83 236.57 140.95 236.52 140.04 236.48 C121.83 235.62 103.61 235.1 85.39 234.72 C83.86 234.69 83.86 234.69 82.3 234.66 C58.76 234.18 35.23 234.06 11.69 234.07 C10.63 234.07 9.57 234.07 8.48 234.07 C-27.78 234.09 -63.96 234.45 -100.19 236.26 Z " fill="#A2C1D6" transform="translate(536.1884765625,-0.2607421875)"/>
<path d="M0 0 C88.11 0 176.22 0 267 0 C263.53 5.94 263.53 5.94 260 12 C253.42 23.32 247.03 34.7 241.01 46.33 C236.11 55.75 230.93 65.01 225.72 74.27 C221.01 82.63 216.42 91.02 212.17 99.63 C205.45 113.22 198.41 126.65 190.88 139.81 C181.14 156.83 172.15 174.26 163.05 191.62 C162.64 192.41 162.22 193.2 161.8 194.02 C161.03 195.49 160.26 196.96 159.49 198.42 C157.38 202.44 155.22 206.43 153.02 210.39 C146.74 221.71 141.01 233.06 136 245 C131.97 241.49 129.75 237.38 127.25 232.75 C126.59 231.54 126.59 231.54 125.91 230.3 C122.95 224.86 120.12 219.35 117.38 213.79 C108.92 196.67 100 179.77 91 162.94 C90.4 161.82 89.8 160.69 89.19 159.54 C85.77 153.17 82.23 146.9 78.54 140.69 C77.04 138.07 75.69 135.41 74.38 132.69 C71 125.8 67.17 119.19 63.36 112.53 C59.66 106.01 56.09 99.44 52.6 92.81 C46.17 80.62 39.36 68.76 32.13 57.02 C27.41 49.35 22.84 41.61 18.41 33.77 C15.7 28.97 12.95 24.19 10.15 19.44 C9.5 18.34 8.85 17.24 8.19 16.1 C6.92 13.94 5.64 11.79 4.37 9.64 C3.8 8.67 3.23 7.7 2.64 6.71 C2.13 5.85 1.62 4.98 1.09 4.1 C0 2 0 2 0 0 Z " fill="#1BB0D6" transform="translate(407,426)"/>
<path d="M0 0 C88.11 0 176.22 0 267 0 C265.68 0.99 264.36 1.98 263 3 C261.09 5.57 261.09 5.57 259.38 8.44 C258.78 9.38 258.19 10.33 257.59 11.31 C256.29 13.51 255.1 15.7 254 18 C253.67 18 253.34 18 253 18 C252.67 14.04 252.34 10.08 252 6 C250.02 6 248.04 6 246 6 C246 5.67 246 5.34 246 5 C231.39 3.35 217.02 2.72 202.33 2.77 C200.15 2.77 197.97 2.77 195.79 2.77 C189.94 2.77 184.09 2.78 178.24 2.8 C172.11 2.81 165.97 2.81 159.83 2.81 C148.24 2.82 136.65 2.84 125.06 2.86 C111.85 2.88 98.64 2.89 85.43 2.9 C58.29 2.92 31.14 2.96 4 3 C5.54 6.14 7.06 9.09 9 12 C9.33 12.66 9.66 13.32 10 14 C9.34 14.66 8.68 15.32 8 16 C6.66 13.71 5.33 11.42 4 9.12 C3.62 8.47 3.24 7.82 2.84 7.15 C0 2.23 0 2.23 0 0 Z " fill="#4EA9CA" transform="translate(407,426)"/>
<path d="M0 0 C1.01 0.05 1.01 0.05 2.03 0.11 C5.08 0.27 8.14 0.41 11.19 0.56 C12.24 0.62 13.3 0.67 14.38 0.73 C15.92 0.8 15.92 0.8 17.48 0.88 C18.42 0.93 19.36 0.97 20.32 1.02 C23.01 1 25.37 0.55 28 0 C29.67 0.29 31.34 0.63 33 1 C35.5 1.2 38 1.36 40.5 1.5 C44.76 1.74 48.83 2.04 53 3 C53 3.66 53 4.32 53 5 C53.64 4.99 54.29 4.99 54.95 4.98 C57.93 4.96 60.9 4.95 63.88 4.94 C64.89 4.93 65.9 4.92 66.95 4.91 C73.36 4.89 79.63 5.22 86 6 C86 6.33 86 6.66 86 7 C69.29 7.3 52.77 6.59 36.11 5.35 C32.25 5.06 28.39 4.78 24.53 4.51 C22.06 4.33 19.59 4.15 17.11 3.97 C15.97 3.89 14.82 3.81 13.64 3.72 C12.58 3.64 11.51 3.56 10.42 3.48 C9.49 3.41 8.56 3.34 7.6 3.27 C5.02 3 2.54 2.55 0 2 C0 1.34 0 0.68 0 0 Z " fill="#D3DAE1" transform="translate(328,853)"/>
<path d="M0 0 C0.99 0 1.98 0 3 0 C3.27 0.8 3.54 1.61 3.81 2.44 C4.2 3.28 4.6 4.13 5 5 C5.99 5.33 6.98 5.66 8 6 C13.82 12.99 18.87 21.94 20 31 C20.66 31.66 21.32 32.32 22 33 C21.34 33.66 20.68 34.32 20 35 C17.63 31.14 15.26 27.28 12.9 23.42 C12.1 22.11 11.3 20.8 10.49 19.49 C9.33 17.6 8.17 15.7 7.01 13.81 C6.48 12.94 6.48 12.94 5.93 12.06 C3.56 8.15 1.72 4.23 0 0 Z " fill="#409DC2" transform="translate(420,449)"/>
<path d="M0 0 C3.73 0.5 5.65 1.03 8 4 C8.7 6.38 8.7 6.38 9.12 9 C9.6 11.81 10.1 14.29 11 17 C11.66 17 12.32 17 13 17 C15.94 21.99 16.63 26.34 17 32 C13.99 29.4 12.46 26.38 10.64 22.87 C10.34 22.28 10.03 21.69 9.72 21.08 C9.07 19.84 8.43 18.59 7.79 17.35 C6.81 15.44 5.82 13.53 4.83 11.63 C0 2.28 0 2.28 0 0 Z " fill="#399FC5" transform="translate(497,585)"/>
<path d="M0 0 C0.66 0 1.32 0 2 0 C2 0.66 2 1.32 2 2 C2.6 1.84 3.2 1.67 3.81 1.5 C6 1 6 1 9 1 C10.9 0.85 12.79 0.68 14.69 0.5 C15.68 0.41 16.68 0.31 17.7 0.22 C18.46 0.15 19.22 0.07 20 0 C20 0.99 20 1.98 20 3 C22.48 3.5 22.48 3.5 25 4 C25 4.33 25 4.66 25 5 C13.24 4.51 1.66 3.66 -10 2 C-10 1.67 -10 1.34 -10 1 C-9.36 1.01 -8.72 1.02 -8.07 1.04 C-7.24 1.04 -6.41 1.05 -5.56 1.06 C-4.33 1.08 -4.33 1.08 -3.07 1.1 C-1.01 1.23 -1.01 1.23 0 0 Z " fill="#D3D9E0" transform="translate(299,849)"/>
<path d="M0 0 C0.74 0 1.47 0.01 2.23 0.01 C4.03 0.03 5.83 0.04 7.62 0.06 C6.62 2.06 6.62 2.06 4.63 2.73 C3.82 2.9 3.02 3.07 2.19 3.25 C0.98 3.52 0.98 3.52 -0.25 3.79 C-2.38 4.06 -2.38 4.06 -4.38 3.06 C-6.98 3.96 -6.98 3.96 -9.38 5.06 C-9.38 4.4 -9.38 3.74 -9.38 3.06 C-11.36 3.39 -13.33 3.72 -15.38 4.06 C-15.05 3.07 -14.71 2.08 -14.38 1.06 C-9.52 0.09 -4.92 -0.06 0 0 Z " fill="#FCFCFB" transform="translate(368.375,240.9375)"/>
<path d="M0 0 C0.33 0.66 0.66 1.32 1 2 C0.04 4.32 0.04 4.32 -1.46 7.19 C-1.99 8.22 -2.53 9.24 -3.08 10.3 C-3.65 11.38 -4.22 12.45 -4.81 13.56 C-5.37 14.64 -5.93 15.72 -6.51 16.83 C-10.74 24.87 -10.74 24.87 -13 26 C-12.64 19.92 -10.83 17.57 -7 13 C-6.04 10.33 -5.53 7.8 -5 5 C-4.01 5 -3.02 5 -2 5 C-1.34 3.35 -0.68 1.7 0 0 Z " fill="#287FB1" transform="translate(610,539)"/>
<path d="M0 0 C3.93 2.62 3.82 4.5 5 9 C6.26 12.41 7.39 15.39 10 18 C10 18.99 10 19.98 10 21 C10.66 21 11.32 21 12 21 C12.33 22.65 12.66 24.3 13 26 C8.76 22.35 6.37 17.83 3.69 13 C3.22 12.19 2.75 11.39 2.27 10.55 C1.84 9.77 1.4 8.99 0.95 8.19 C0.55 7.48 0.15 6.77 -0.26 6.04 C-1.14 3.61 -0.86 2.4 0 0 Z " fill="#3492B5" transform="translate(530,645)"/>
<path d="M0 0 C0.33 0.66 0.66 1.32 1 2 C0.04 4.32 0.04 4.32 -1.46 7.19 C-1.99 8.22 -2.53 9.24 -3.08 10.3 C-3.65 11.38 -4.22 12.45 -4.81 13.56 C-5.37 14.64 -5.93 15.72 -6.51 16.83 C-10.74 24.87 -10.74 24.87 -13 26 C-12.01 22.7 -11.02 19.4 -10 16 C-9.34 16 -8.68 16 -8 16 C-7.88 14.7 -7.75 13.4 -7.62 12.06 C-7.41 9.85 -7.41 9.85 -7 8 C-6.34 7.67 -5.68 7.34 -5 7 C-5 6.34 -5 5.68 -5 5 C-4.01 5 -3.02 5 -2 5 C-1.34 3.35 -0.68 1.7 0 0 Z " fill="#2787B3" transform="translate(591,574)"/>
<path d="M0 0 C-1 1 -1 1 -4.56 1.06 C-5.7 1.04 -6.83 1.02 -8 1 C-8.33 1.66 -8.66 2.32 -9 3 C-10.32 2.34 -11.64 1.68 -13 1 C-12.67 0.34 -12.34 -0.32 -12 -1 C-3.71 -2.63 -3.71 -2.63 0 0 Z " fill="#FAFCFB" transform="translate(254,258)"/>
<path d="M0 0 C0.8 0.03 1.6 0.07 2.43 0.11 C3.64 0.15 3.64 0.15 4.88 0.19 C5.49 0.22 6.1 0.26 6.74 0.29 C6.41 1.28 6.08 2.27 5.74 3.29 C2.11 3.29 -1.52 3.29 -5.26 3.29 C-2.26 0.29 -2.26 0.29 0 0 Z " fill="#FDFCFA" transform="translate(275.26171875,250.70703125)"/>
<path d="M0 0 C1 3 1 3 0.22 4.82 C-0.85 6.55 -1.93 8.27 -3 10 C-3.66 10 -4.32 10 -5 10 C-4.34 7.36 -3.68 4.72 -3 2 C-2.34 2 -1.68 2 -1 2 C-0.67 1.34 -0.34 0.68 0 0 Z " fill="#187EAF" transform="translate(642,478)"/>
<path d="M0 0 C1.65 0.33 3.3 0.66 5 1 C4.67 1.99 4.34 2.98 4 4 C2.02 4 0.04 4 -2 4 C-1.34 2.68 -0.68 1.36 0 0 Z " fill="#F9FCFB" transform="translate(861,259)"/>
</svg>
